<?xml version="1.0" encoding="UTF-8"?>
<svg fill="#284569" width="100pt" height="100pt" version="1.1" viewBox="0 0 100 100" xmlns="http://www.w3.org/2000/svg">
 <g>
  <path d="m14.906 69.117c0-0.9375-0.76172-1.6992-1.6992-1.6992s-1.6992 0.76172-1.6992 1.6992 0.76172 1.6992 1.6992 1.6992 1.6992-0.76172 1.6992-1.6992z"/>
  <path d="m22.266 56.371c0-0.9375-0.76172-1.6992-1.6992-1.6992s-1.6992 0.76172-1.6992 1.6992 0.76172 1.6992 1.6992 1.6992 1.6992-0.76172 1.6992-1.6992z"/>
  <path d="m36.984 56.371c0-0.9375-0.76172-1.6992-1.6992-1.6992s-1.6992 0.76172-1.6992 1.6992 0.76172 1.6992 1.6992 1.6992 1.6992-0.76172 1.6992-1.6992z"/>
  <path d="m44.34 69.117c0-0.9375-0.76172-1.6992-1.6992-1.6992s-1.6992 0.76172-1.6992 1.6992 0.76172 1.6992 1.6992 1.6992 1.6992-0.76172 1.6992-1.6992z"/>
  <path d="m36.984 81.863c0-0.9375-0.76172-1.6992-1.6992-1.6992s-1.6992 0.76172-1.6992 1.6992 0.76172 1.6992 1.6992 1.6992 1.6992-0.76172 1.6992-1.6992z"/>
  <path d="m22.266 81.863c0-0.9375-0.76172-1.6992-1.6992-1.6992s-1.6992 0.76172-1.6992 1.6992 0.76172 1.6992 1.6992 1.6992 1.6992-0.76172 1.6992-1.6992z"/>
  <path d="m30.473 69.117c0-1.4062-1.1406-2.5508-2.5508-2.5508-1.4062 0-2.5508 1.1406-2.5508 2.5508 0 1.4062 1.1406 2.5508 2.5508 2.5508 1.4062 0 2.5508-1.1406 2.5508-2.5508z"/>
  <path d="m37.406 64.867c0-1.1719-0.94922-2.125-2.125-2.125-1.1719 0-2.125 0.94922-2.125 2.125 0 1.1719 0.94922 2.125 2.125 2.125 1.1719 0 2.125-0.94922 2.125-2.125z"/>
  <path d="m30.051 60.621c0-1.1719-0.94922-2.125-2.125-2.125-1.1719 0-2.125 0.94922-2.125 2.125 0 1.1719 0.94922 2.125 2.125 2.125 1.1719 0 2.125-0.94922 2.125-2.125z"/>
  <path d="m22.691 64.867c0-1.1719-0.94922-2.125-2.125-2.125-1.1719 0-2.125 0.94922-2.125 2.125 0 1.1719 0.94922 2.125 2.125 2.125 1.1719 0 2.125-0.94922 2.125-2.125z"/>
  <path d="m37.406 73.367c0-1.1719-0.94922-2.125-2.125-2.125-1.1719 0-2.125 0.94922-2.125 2.125 0 1.1719 0.94922 2.125 2.125 2.125 1.1719 0 2.125-0.94922 2.125-2.125z"/>
  <path d="m30.051 77.613c0-1.1719-0.94922-2.125-2.125-2.125-1.1719 0-2.125 0.94922-2.125 2.125 0 1.1719 0.94922 2.125 2.125 2.125 1.1719 0 2.125-0.94922 2.125-2.125z"/>
  <path d="m22.691 73.367c0-1.1719-0.94922-2.125-2.125-2.125-1.1719 0-2.125 0.94922-2.125 2.125 0 1.1719 0.94922 2.125 2.125 2.125 1.1719 0 2.125-0.94922 2.125-2.125z"/>
  <path d="m14.484 77.613c0-0.70312-0.57031-1.2734-1.2734-1.2734-0.70313 0-1.2734 0.57031-1.2734 1.2734s0.57031 1.2734 1.2734 1.2734c0.70312 0 1.2734-0.57031 1.2734-1.2734z"/>
  <path d="m29.199 86.109c0-0.70312-0.57031-1.2734-1.2734-1.2734s-1.2734 0.57031-1.2734 1.2734 0.57031 1.2734 1.2734 1.2734 1.2734-0.57031 1.2734-1.2734z"/>
  <path d="m14.484 60.621c0-0.70312-0.57031-1.2734-1.2734-1.2734-0.70313 0-1.2734 0.57031-1.2734 1.2734s0.57031 1.2734 1.2734 1.2734c0.70312 0 1.2734-0.57031 1.2734-1.2734z"/>
  <path d="m29.199 52.125c0-0.70312-0.57031-1.2734-1.2734-1.2734s-1.2734 0.57031-1.2734 1.2734 0.57031 1.2734 1.2734 1.2734 1.2734-0.57031 1.2734-1.2734z"/>
  <path d="m43.918 60.621c0-0.70312-0.57031-1.2734-1.2734-1.2734s-1.2734 0.57031-1.2734 1.2734 0.57031 1.2734 1.2734 1.2734 1.2734-0.57031 1.2734-1.2734z"/>
  <path d="m43.918 77.613c0-0.70312-0.57031-1.2734-1.2734-1.2734s-1.2734 0.57031-1.2734 1.2734 0.57031 1.2734 1.2734 1.2734 1.2734-0.57031 1.2734-1.2734z"/>
  <path d="m14.059 86.109c0-0.46875-0.37891-0.85156-0.85156-0.85156-0.46875 0-0.85156 0.37891-0.85156 0.85156 0 0.46875 0.37891 0.85156 0.85156 0.85156 0.46875 0 0.85156-0.37891 0.85156-0.85156z"/>
  <path d="m21.418 90.359c0-0.46875-0.37891-0.85156-0.85156-0.85156-0.46875 0-0.85156 0.37891-0.85156 0.85156 0 0.46875 0.37891 0.85156 0.85156 0.85156 0.46875 0 0.85156-0.37891 0.85156-0.85156z"/>
  <path d="m6.6992 64.867c0-0.46875-0.37891-0.85156-0.85156-0.85156-0.46875 0.003906-0.84766 0.38281-0.84766 0.85156s0.37891 0.85156 0.85156 0.85156c0.46875 0 0.85156-0.37891 0.85156-0.85156z"/>
  <path d="m6.6992 73.367c0-0.46875-0.37891-0.85156-0.85156-0.85156-0.46875 0-0.84766 0.38281-0.84766 0.85156s0.37891 0.85156 0.85156 0.85156c0.46875 0 0.85156-0.37891 0.85156-0.85156z"/>
  <path d="m43.492 86.109c0-0.46875-0.37891-0.85156-0.85156-0.85156-0.46875 0-0.85156 0.37891-0.85156 0.85156 0 0.46875 0.37891 0.85156 0.85156 0.85156 0.46875 0 0.85156-0.37891 0.85156-0.85156z"/>
  <path d="m36.133 90.359c0-0.46875-0.37891-0.85156-0.85156-0.85156-0.46875 0-0.85156 0.37891-0.85156 0.85156 0 0.46875 0.37891 0.85156 0.85156 0.85156 0.46875 0 0.85156-0.37891 0.85156-0.85156z"/>
  <path d="m21.418 47.875c0-0.46875-0.37891-0.85156-0.85156-0.85156-0.46875 0-0.85156 0.37891-0.85156 0.85156 0 0.46875 0.37891 0.85156 0.85156 0.85156 0.46875 0 0.85156-0.37891 0.85156-0.85156z"/>
  <path d="m14.059 52.125c0-0.46875-0.37891-0.85156-0.85156-0.85156-0.46875 0-0.85156 0.37891-0.85156 0.85156 0 0.46875 0.37891 0.85156 0.85156 0.85156 0.46875 0 0.85156-0.37891 0.85156-0.85156z"/>
  <path d="m43.492 52.125c0-0.46875-0.37891-0.85156-0.85156-0.85156-0.46875 0-0.85156 0.37891-0.85156 0.85156 0 0.46875 0.37891 0.85156 0.85156 0.85156 0.46875 0 0.85156-0.37891 0.85156-0.85156z"/>
  <path d="m36.133 47.875c0-0.46875-0.37891-0.85156-0.85156-0.85156-0.46875 0-0.85156 0.37891-0.85156 0.85156 0 0.46875 0.37891 0.85156 0.85156 0.85156 0.46875 0 0.85156-0.37891 0.85156-0.85156z"/>
  <path d="m50.852 73.367c0-0.46875-0.37891-0.85156-0.85156-0.85156-0.46875 0-0.85156 0.37891-0.85156 0.85156 0 0.46875 0.37891 0.85156 0.85156 0.85156 0.46875 0 0.85156-0.37891 0.85156-0.85156z"/>
  <path d="m50.852 64.867c0-0.46875-0.37891-0.85156-0.85156-0.85156-0.46875 0-0.85156 0.37891-0.85156 0.85156 0 0.46875 0.37891 0.85156 0.85156 0.85156 0.46875 0 0.85156-0.37891 0.85156-0.85156z"/>
  <path d="m59.059 69.117c0-0.9375-0.76172-1.6992-1.6992-1.6992s-1.6992 0.76172-1.6992 1.6992 0.76172 1.6992 1.6992 1.6992 1.6992-0.76172 1.6992-1.6992z"/>
  <path d="m66.418 56.371c0-0.9375-0.76172-1.6992-1.6992-1.6992s-1.6992 0.76172-1.6992 1.6992 0.76172 1.6992 1.6992 1.6992 1.6992-0.76172 1.6992-1.6992z"/>
  <path d="m81.133 56.371c0-0.9375-0.76172-1.6992-1.6992-1.6992s-1.6992 0.76172-1.6992 1.6992 0.76172 1.6992 1.6992 1.6992 1.6992-0.76172 1.6992-1.6992z"/>
  <path d="m88.492 69.117c0-0.9375-0.76172-1.6992-1.6992-1.6992s-1.6992 0.76172-1.6992 1.6992 0.76172 1.6992 1.6992 1.6992 1.6992-0.76172 1.6992-1.6992z"/>
  <path d="m81.133 81.863c0-0.9375-0.76172-1.6992-1.6992-1.6992s-1.6992 0.76172-1.6992 1.6992 0.76172 1.6992 1.6992 1.6992 1.6992-0.76172 1.6992-1.6992z"/>
  <path d="m66.418 81.863c0-0.9375-0.76172-1.6992-1.6992-1.6992s-1.6992 0.76172-1.6992 1.6992 0.76172 1.6992 1.6992 1.6992 1.6992-0.76172 1.6992-1.6992z"/>
  <path d="m74.625 69.117c0-1.4062-1.1406-2.5508-2.5508-2.5508-1.4062 0-2.5508 1.1406-2.5508 2.5508 0 1.4062 1.1406 2.5508 2.5508 2.5508 1.4062 0 2.5508-1.1406 2.5508-2.5508z"/>
  <path d="m81.559 64.867c0-1.1719-0.94922-2.125-2.125-2.125-1.1719 0-2.125 0.94922-2.125 2.125 0 1.1719 0.94922 2.125 2.125 2.125 1.1719 0 2.125-0.94922 2.125-2.125z"/>
  <path d="m74.199 60.621c0-1.1719-0.94922-2.125-2.125-2.125-1.1719 0-2.125 0.94922-2.125 2.125 0 1.1719 0.94922 2.125 2.125 2.125 1.1719 0 2.125-0.94922 2.125-2.125z"/>
  <path d="m66.84 64.867c0-1.1719-0.94922-2.125-2.125-2.125-1.1719 0-2.125 0.94922-2.125 2.125 0 1.1719 0.94922 2.125 2.125 2.125 1.1719 0 2.125-0.94922 2.125-2.125z"/>
  <path d="m81.559 73.367c0-1.1719-0.94922-2.125-2.125-2.125-1.1719 0-2.125 0.94922-2.125 2.125 0 1.1719 0.94922 2.125 2.125 2.125 1.1719 0 2.125-0.94922 2.125-2.125z"/>
  <path d="m74.199 77.613c0-1.1719-0.94922-2.125-2.125-2.125-1.1719 0-2.125 0.94922-2.125 2.125 0 1.1719 0.94922 2.125 2.125 2.125 1.1719 0 2.125-0.94922 2.125-2.125z"/>
  <path d="m66.84 73.367c0-1.1719-0.94922-2.125-2.125-2.125-1.1719 0-2.125 0.94922-2.125 2.125 0 1.1719 0.94922 2.125 2.125 2.125 1.1719 0 2.125-0.94922 2.125-2.125z"/>
  <path d="m58.633 77.613c0-0.70312-0.57031-1.2734-1.2734-1.2734s-1.2734 0.57031-1.2734 1.2734 0.57031 1.2734 1.2734 1.2734 1.2734-0.57031 1.2734-1.2734z"/>
  <path d="m73.352 86.109c0-0.70312-0.57031-1.2734-1.2734-1.2734s-1.2734 0.57031-1.2734 1.2734 0.57031 1.2734 1.2734 1.2734 1.2734-0.57031 1.2734-1.2734z"/>
  <path d="m58.633 60.621c0-0.70312-0.57031-1.2734-1.2734-1.2734s-1.2734 0.57031-1.2734 1.2734 0.57031 1.2734 1.2734 1.2734 1.2734-0.57031 1.2734-1.2734z"/>
  <path d="m73.352 52.125c0-0.70312-0.57031-1.2734-1.2734-1.2734s-1.2734 0.57031-1.2734 1.2734 0.57031 1.2734 1.2734 1.2734 1.2734-0.57031 1.2734-1.2734z"/>
  <path d="m88.066 60.621c0-0.70312-0.57031-1.2734-1.2734-1.2734s-1.2734 0.57031-1.2734 1.2734 0.57031 1.2734 1.2734 1.2734 1.2734-0.57031 1.2734-1.2734z"/>
  <path d="m88.066 77.613c0-0.70312-0.57031-1.2734-1.2734-1.2734s-1.2734 0.57031-1.2734 1.2734 0.57031 1.2734 1.2734 1.2734 1.2734-0.57031 1.2734-1.2734z"/>
  <path d="m58.207 86.109c0-0.46875-0.37891-0.85156-0.85156-0.85156-0.46875 0-0.85156 0.37891-0.85156 0.85156 0 0.46875 0.37891 0.85156 0.85156 0.85156 0.46875 0 0.85156-0.37891 0.85156-0.85156z"/>
  <path d="m65.566 90.359c0-0.46875-0.37891-0.85156-0.85156-0.85156-0.46875 0-0.85156 0.37891-0.85156 0.85156 0 0.46875 0.37891 0.85156 0.85156 0.85156 0.46875 0 0.85156-0.37891 0.85156-0.85156z"/>
  <path d="m87.641 86.109c0-0.46875-0.37891-0.85156-0.85156-0.85156-0.46875 0-0.85156 0.37891-0.85156 0.85156 0 0.46875 0.37891 0.85156 0.85156 0.85156 0.46875 0 0.85156-0.37891 0.85156-0.85156z"/>
  <path d="m80.285 90.359c0-0.46875-0.37891-0.85156-0.85156-0.85156-0.46875 0-0.85156 0.37891-0.85156 0.85156 0 0.46875 0.37891 0.85156 0.85156 0.85156 0.46875 0 0.85156-0.37891 0.85156-0.85156z"/>
  <path d="m65.566 47.875c0-0.46875-0.37891-0.85156-0.85156-0.85156-0.46875 0-0.85156 0.37891-0.85156 0.85156 0 0.46875 0.37891 0.85156 0.85156 0.85156 0.46875 0 0.85156-0.37891 0.85156-0.85156z"/>
  <path d="m58.207 52.125c0-0.46875-0.37891-0.85156-0.85156-0.85156-0.46875 0-0.85156 0.37891-0.85156 0.85156 0 0.46875 0.37891 0.85156 0.85156 0.85156 0.46875 0 0.85156-0.37891 0.85156-0.85156z"/>
  <path d="m87.641 52.125c0-0.46875-0.37891-0.85156-0.85156-0.85156-0.46875 0-0.85156 0.37891-0.85156 0.85156 0 0.46875 0.37891 0.85156 0.85156 0.85156 0.46875 0 0.85156-0.37891 0.85156-0.85156z"/>
  <path d="m80.285 47.875c0-0.46875-0.37891-0.85156-0.85156-0.85156-0.46875 0-0.85156 0.37891-0.85156 0.85156 0 0.46875 0.37891 0.85156 0.85156 0.85156 0.46875 0 0.85156-0.37891 0.85156-0.85156z"/>
  <path d="m95 73.367c0-0.46875-0.37891-0.85156-0.85156-0.85156-0.46875 0-0.85156 0.37891-0.85156 0.85156 0 0.46875 0.37891 0.85156 0.85156 0.85156 0.47266-0.003906 0.85156-0.38281 0.85156-0.85156z"/>
  <path d="m95 64.867c0-0.46875-0.37891-0.85156-0.85156-0.85156-0.46875 0-0.85156 0.37891-0.85156 0.85156 0 0.46875 0.37891 0.85156 0.85156 0.85156 0.47266 0 0.85156-0.37891 0.85156-0.85156z"/>
  <path d="m36.984 30.883c0-0.9375-0.76172-1.6992-1.6992-1.6992s-1.6992 0.76172-1.6992 1.6992 0.76172 1.6992 1.6992 1.6992 1.6992-0.76172 1.6992-1.6992z"/>
  <path d="m44.34 18.137c0-0.9375-0.76172-1.6992-1.6992-1.6992s-1.6992 0.76172-1.6992 1.6992 0.76172 1.6992 1.6992 1.6992 1.6992-0.76172 1.6992-1.6992z"/>
  <path d="m59.059 18.137c0-0.9375-0.76172-1.6992-1.6992-1.6992s-1.6992 0.76172-1.6992 1.6992 0.76172 1.6992 1.6992 1.6992 1.6992-0.76172 1.6992-1.6992z"/>
  <path d="m66.418 30.883c0-0.9375-0.76172-1.6992-1.6992-1.6992s-1.6992 0.76172-1.6992 1.6992 0.76172 1.6992 1.6992 1.6992 1.6992-0.76172 1.6992-1.6992z"/>
  <path d="m59.059 43.629c0-0.9375-0.76172-1.6992-1.6992-1.6992s-1.6992 0.76172-1.6992 1.6992 0.76172 1.6992 1.6992 1.6992 1.6992-0.76172 1.6992-1.6992z"/>
  <path d="m44.34 43.629c0-0.9375-0.76172-1.6992-1.6992-1.6992s-1.6992 0.76172-1.6992 1.6992 0.76172 1.6992 1.6992 1.6992 1.6992-0.76172 1.6992-1.6992z"/>
  <path d="m52.551 30.883c0-1.4062-1.1406-2.5508-2.5508-2.5508-1.4062 0-2.5508 1.1406-2.5508 2.5508 0 1.4062 1.1406 2.5508 2.5508 2.5508 1.4062 0 2.5508-1.1406 2.5508-2.5508z"/>
  <path d="m59.484 26.633c0-1.1719-0.94922-2.125-2.125-2.125-1.1719 0-2.125 0.94922-2.125 2.125 0 1.1719 0.94922 2.125 2.125 2.125 1.1719 0 2.125-0.94922 2.125-2.125z"/>
  <path d="m52.125 22.387c0-1.1719-0.94922-2.125-2.125-2.125-1.1719 0-2.125 0.94922-2.125 2.125 0 1.1719 0.94922 2.125 2.125 2.125 1.1719 0 2.125-0.94922 2.125-2.125z"/>
  <path d="m44.766 26.633c0-1.1719-0.94922-2.125-2.125-2.125-1.1719 0-2.125 0.94922-2.125 2.125 0 1.1719 0.94922 2.125 2.125 2.125 1.1719 0 2.125-0.94922 2.125-2.125z"/>
  <path d="m59.484 35.129c0-1.1719-0.94922-2.125-2.125-2.125-1.1719 0-2.125 0.94922-2.125 2.125 0 1.1719 0.94922 2.125 2.125 2.125 1.1719 0 2.125-0.94922 2.125-2.125z"/>
  <path d="m52.125 39.379c0-1.1719-0.94922-2.125-2.125-2.125-1.1719 0-2.125 0.94922-2.125 2.125 0 1.1719 0.94922 2.125 2.125 2.125 1.1719 0 2.125-0.94922 2.125-2.125z"/>
  <path d="m44.766 35.129c0-1.1719-0.94922-2.125-2.125-2.125-1.1719 0-2.125 0.94922-2.125 2.125 0 1.1719 0.94922 2.125 2.125 2.125 1.1719 0 2.125-0.94922 2.125-2.125z"/>
  <path d="m36.559 39.379c0-0.70312-0.57031-1.2734-1.2734-1.2734s-1.2734 0.57031-1.2734 1.2734 0.57031 1.2734 1.2734 1.2734 1.2734-0.57031 1.2734-1.2734z"/>
  <path d="m51.273 47.875c0-0.70312-0.57031-1.2734-1.2734-1.2734s-1.2734 0.57031-1.2734 1.2734 0.57031 1.2734 1.2734 1.2734 1.2734-0.57031 1.2734-1.2734z"/>
  <path d="m36.559 22.387c0-0.70312-0.57031-1.2734-1.2734-1.2734s-1.2734 0.57031-1.2734 1.2734 0.57031 1.2734 1.2734 1.2734 1.2734-0.57031 1.2734-1.2734z"/>
  <path d="m51.273 13.891c0-0.70312-0.57031-1.2734-1.2734-1.2734s-1.2734 0.57031-1.2734 1.2734 0.57031 1.2734 1.2734 1.2734 1.2734-0.57031 1.2734-1.2734z"/>
  <path d="m65.992 22.387c0-0.70312-0.57031-1.2734-1.2734-1.2734s-1.2734 0.57031-1.2734 1.2734 0.57031 1.2734 1.2734 1.2734 1.2734-0.57031 1.2734-1.2734z"/>
  <path d="m65.992 39.379c0-0.70312-0.57031-1.2734-1.2734-1.2734s-1.2734 0.57031-1.2734 1.2734 0.57031 1.2734 1.2734 1.2734 1.2734-0.57031 1.2734-1.2734z"/>
  <path d="m28.773 26.633c0-0.46875-0.37891-0.85156-0.85156-0.85156-0.46875 0-0.85156 0.37891-0.85156 0.85156 0 0.46875 0.37891 0.85156 0.85156 0.85156 0.46875 0 0.85156-0.37891 0.85156-0.85156z"/>
  <path d="m28.773 35.129c0-0.46875-0.37891-0.85156-0.85156-0.85156-0.46875 0-0.85156 0.37891-0.85156 0.85156 0 0.46875 0.37891 0.85156 0.85156 0.85156 0.46875 0 0.85156-0.37891 0.85156-0.85156z"/>
  <path d="m43.492 9.6406c0-0.46875-0.37891-0.85156-0.85156-0.85156-0.46875 0-0.85156 0.37891-0.85156 0.85156 0 0.46875 0.37891 0.85156 0.85156 0.85156 0.46875 0 0.85156-0.37891 0.85156-0.85156z"/>
  <path d="m36.133 13.891c0-0.46875-0.37891-0.85156-0.85156-0.85156-0.46875 0-0.85156 0.37891-0.85156 0.85156 0 0.46875 0.37891 0.85156 0.85156 0.85156 0.46875 0 0.85156-0.37891 0.85156-0.85156z"/>
  <path d="m65.566 13.891c0-0.46875-0.37891-0.85156-0.85156-0.85156-0.46875 0-0.85156 0.37891-0.85156 0.85156 0 0.46875 0.37891 0.85156 0.85156 0.85156 0.46875 0 0.85156-0.37891 0.85156-0.85156z"/>
  <path d="m58.207 9.6406c0-0.46875-0.37891-0.85156-0.85156-0.85156-0.46875 0-0.85156 0.37891-0.85156 0.85156 0 0.46875 0.37891 0.85156 0.85156 0.85156 0.46875 0 0.85156-0.37891 0.85156-0.85156z"/>
  <path d="m72.926 35.129c0-0.46875-0.37891-0.85156-0.85156-0.85156-0.46875 0-0.85156 0.37891-0.85156 0.85156 0 0.46875 0.37891 0.85156 0.85156 0.85156 0.46875 0 0.85156-0.37891 0.85156-0.85156z"/>
  <path d="m72.926 26.633c0-0.46875-0.37891-0.85156-0.85156-0.85156-0.46875 0-0.85156 0.37891-0.85156 0.85156 0 0.46875 0.37891 0.85156 0.85156 0.85156 0.46875 0 0.85156-0.37891 0.85156-0.85156z"/>
 </g>
</svg>
