<?xml version="1.0" encoding="UTF-8"?>
<svg style="width: 500pt; height: 500pt;" fill="#284569" version="1.1" viewBox="0 0 100 100"
  xmlns="http://www.w3.org/2000/svg">
  <g>
    <path d="m47.562 22.734c0 1.0234-1.5352 1.0234-1.5352 0s1.5352-1.0234 1.5352 0"/>
    <path d="m47.684 26.578c0 1.1836-1.7734 1.1836-1.7734 0 0-1.1797 1.7734-1.1797 1.7734 0"/>
    <path d="m47.801 30.426c0 1.3359-2.0078 1.3359-2.0078 0 0-1.3398 2.0078-1.3398 2.0078 0"/>
    <path d="m47.918 34.27c0 1.4961-2.2422 1.4961-2.2422 0 0-1.4922 2.2422-1.4922 2.2422 0"/>
    <path d="m48.035 38.078c0 1.6523-2.4805 1.6523-2.4805 0s2.4805-1.6523 2.4805 0"/>
    <path d="m48.152 41.965c0 1.8047-2.7109 1.8047-2.7109 0 0-1.8086 2.7109-1.8086 2.7109 0"/>
    <path d="m48.273 45.809c0 1.9688-2.9531 1.9688-2.9531 0s2.9531-1.9688 2.9531 0"/>
    <path d="m43.77 22.734c0 1.0234-1.5312 1.0234-1.5312 0s1.5312-1.0234 1.5312 0"/>
    <path d="m43.891 26.578c0 1.1836-1.7734 1.1836-1.7734 0 0-1.1797 1.7734-1.1797 1.7734 0"/>
    <path d="m44.008 30.426c0 1.3359-2.0078 1.3359-2.0078 0 0-1.3398 2.0078-1.3398 2.0078 0"/>
    <path d="m44.125 34.27c0 1.4961-2.2422 1.4961-2.2422 0 0-1.4922 2.2422-1.4922 2.2422 0"/>
    <path d="m44.242 38.078c0 1.6523-2.4766 1.6523-2.4766 0s2.4766-1.6523 2.4766 0"/>
    <path d="m44.359 41.965c0 1.8047-2.7109 1.8047-2.7109 0 0-1.8086 2.7109-1.8086 2.7109 0"/>
    <path d="m43.77 80.348c0 1.0234-1.5312 1.0234-1.5312 0 0-1.0234 1.5312-1.0234 1.5312 0"/>
    <path d="m43.891 76.57c0 1.1797-1.7734 1.1797-1.7734 0 0-1.1836 1.7734-1.1836 1.7734 0"/>
    <path d="m44.008 72.723c0 1.3359-2.0078 1.3359-2.0078 0 0-1.3359 2.0078-1.3359 2.0078 0"/>
    <path d="m44.125 68.875c0 1.4961-2.2422 1.4961-2.2422 0 0-1.4922 2.2422-1.4922 2.2422 0"/>
    <path d="m44.242 65.031c0 1.6523-2.4766 1.6523-2.4766 0s2.4766-1.6523 2.4766 0"/>
    <path d="m44.359 61.188c0 1.8047-2.7109 1.8047-2.7109 0 0-1.8086 2.7109-1.8086 2.7109 0"/>
    <path d="m47.562 80.348c0 1.0234-1.5352 1.0234-1.5352 0 0-1.0234 1.5352-1.0234 1.5352 0"/>
    <path d="m47.684 76.57c0 1.1797-1.7734 1.1797-1.7734 0 0-1.1836 1.7734-1.1836 1.7734 0"/>
    <path d="m47.801 72.723c0 1.3359-2.0078 1.3359-2.0078 0 0-1.3359 2.0078-1.3359 2.0078 0"/>
    <path d="m47.918 68.875c0 1.4961-2.2422 1.4961-2.2422 0 0-1.4922 2.2422-1.4922 2.2422 0"/>
    <path d="m48.035 65.031c0 1.6523-2.4766 1.6523-2.4766 0s2.4766-1.6523 2.4766 0"/>
    <path d="m48.152 61.188c0 1.8047-2.7109 1.8047-2.7109 0 0-1.8086 2.7109-1.8086 2.7109 0"/>
    <path d="m44.48 45.809c0 1.9688-2.9531 1.9688-2.9531 0s2.9531-1.9688 2.9531 0"/>
    <path d="m48.273 49.445c0 1.9688-2.9531 1.9688-2.9531 0 0-1.9648 2.9531-1.9648 2.9531 0"/>
    <path d="m44.48 49.445c0 1.9688-2.9531 1.9688-2.9531 0 0-1.9648 2.9531-1.9648 2.9531 0"/>
    <path d="m48.273 53.082c0 1.9688-2.9531 1.9688-2.9531 0 0-1.9648 2.9531-1.9648 2.9531 0"/>
    <path d="m44.48 53.082c0 1.9688-2.9531 1.9688-2.9531 0 0-1.9648 2.9531-1.9648 2.9531 0"/>
    <path d="m48.273 57.023c0 1.9688-2.9531 1.9688-2.9531 0 0-1.9648 2.9531-1.9648 2.9531 0"/>
    <path d="m51.359 22.734c0 1.0234-1.5312 1.0234-1.5312 0s1.5312-1.0234 1.5312 0"/>
    <path d="m51.477 26.578c0 1.1836-1.7734 1.1836-1.7734 0 0-1.1797 1.7734-1.1797 1.7734 0"/>
    <path d="m51.59 30.426c0 1.3359-2.0078 1.3359-2.0078 0 0-1.3398 2.0078-1.3398 2.0078 0"/>
    <path d="m51.703 34.27c0 1.4961-2.2422 1.4961-2.2422 0 0-1.4922 2.2422-1.4922 2.2422 0"/>
    <path d="m51.816 38.078c0 1.6523-2.4766 1.6523-2.4766 0s2.4766-1.6523 2.4766 0"/>
    <path d="m51.93 41.965c0 1.8047-2.7109 1.8047-2.7109 0 0-1.8086 2.7109-1.8086 2.7109 0"/>
    <path d="m52.047 45.809c0 1.9688-2.9531 1.9688-2.9531 0s2.9531-1.9688 2.9531 0"/>
    <path d="m51.359 80.348c0 1.0234-1.5312 1.0234-1.5312 0 0-1.0234 1.5312-1.0234 1.5312 0"/>
    <path d="m51.477 76.57c0 1.1797-1.7734 1.1797-1.7734 0 0-1.1836 1.7734-1.1836 1.7734 0"/>
    <path d="m51.59 72.723c0 1.3359-2.0078 1.3359-2.0078 0 0-1.3359 2.0078-1.3359 2.0078 0"/>
    <path d="m51.703 68.875c0 1.4961-2.2422 1.4961-2.2422 0 0-1.4922 2.2422-1.4922 2.2422 0"/>
    <path d="m51.816 65.031c0 1.6523-2.4766 1.6523-2.4766 0s2.4766-1.6523 2.4766 0"/>
    <path d="m51.93 61.188c0 1.8047-2.7109 1.8047-2.7109 0 0-1.8086 2.7109-1.8086 2.7109 0"/>
    <path d="m52.047 49.445c0 1.9688-2.9531 1.9688-2.9531 0 0-1.9648 2.9531-1.9648 2.9531 0"/>
    <path d="m52.047 53.082c0 1.9688-2.9531 1.9688-2.9531 0 0-1.9648 2.9531-1.9648 2.9531 0"/>
    <path d="m52.047 57.023c0 1.9688-2.9531 1.9688-2.9531 0 0-1.9648 2.9531-1.9648 2.9531 0"/>
    <path d="m55.414 76.57c0 1.1797-1.7695 1.1797-1.7695 0 0-1.1836 1.7695-1.1836 1.7695 0"/>
    <path d="m55.527 72.723c0 1.3359-2.0039 1.3359-2.0039 0 0-1.3359 2.0039-1.3359 2.0039 0"/>
    <path d="m55.645 68.875c0 1.4961-2.2422 1.4961-2.2422 0 0-1.4922 2.2422-1.4922 2.2422 0"/>
    <path d="m55.758 65.031c0 1.6523-2.4766 1.6523-2.4766 0s2.4766-1.6523 2.4766 0"/>
    <path d="m59.551 49.57c0 1.6523-2.4805 1.6523-2.4805 0 0-1.6523 2.4805-1.6523 2.4805 0"/>
    <path d="m63.289 49.57c0 1.5273-2.2891 1.5273-2.2891 0 0-1.5234 2.2891-1.5234 2.2891 0"/>
    <path d="m67.031 49.57c0 1.3984-2.0977 1.3984-2.0977 0 0-1.3984 2.0977-1.3984 2.0977 0"/>
    <path d="m70.773 49.57c0 1.2734-1.9062 1.2734-1.9062 0 0-1.2695 1.9062-1.2695 1.9062 0"/>
    <path d="m74.52 49.57c0 1.1445-1.7188 1.1445-1.7188 0 0-1.1445 1.7188-1.1445 1.7188 0"/>
    <path d="m78.262 49.57c0 1.0195-1.5273 1.0195-1.5273 0 0-1.0156 1.5273-1.0156 1.5273 0"/>
    <path d="m82.004 49.57c0 0.89063-1.3398 0.89063-1.3398 0 0-0.89062 1.3398-0.89062 1.3398 0"/>
    <path d="m85.746 49.57c0 0.76563-1.1484 0.76563-1.1484 0 0-0.76172 1.1484-0.76172 1.1484 0"/>
    <path d="m89.488 49.57c0 0.64063-0.95703 0.64063-0.95703 0 0-0.63672 0.95703-0.63672 0.95703 0"/>
    <path d="m93.23 49.57c0 0.51172-0.76562 0.51172-0.76562 0 0-0.51172 0.76562-0.51172 0.76562 0"/>
    <path d="m35.535 52.164c0.68359 0 1.2383 0.55469 1.2383 1.2383s-0.55469 1.2383-1.2383 1.2383-1.2383-0.55469-1.2383-1.2383c0-0.67969 0.55469-1.2383 1.2383-1.2383z"/>
    <path d="m32.844 53.402c0 1.5273-2.2891 1.5273-2.2891 0 0-1.5234 2.2891-1.5234 2.2891 0"/>
    <path d="m28.477 53.402c0 1.0195-1.5273 1.0195-1.5273 0 0-1.0195 1.5273-1.0195 1.5273 0"/>
    <path d="m24.543 53.402c0 0.89062-1.3359 0.89062-1.3359 0s1.3359-0.89062 1.3359 0"/>
    <path d="m20.609 53.402c0 0.76562-1.1445 0.76562-1.1445 0 0-0.76172 1.1445-0.76172 1.1445 0"/>
    <path d="m16.68 53.402c0 0.64062-0.95703 0.64062-0.95703 0 0-0.63672 0.95703-0.63672 0.95703 0"/>
    <path d="m12.746 53.402c0 0.51172-0.76562 0.51172-0.76562 0 0-0.51172 0.76562-0.51172 0.76562 0"/>
    <path d="m59.5 57.148c0 1.5273-2.2891 1.5273-2.2891 0 0-1.5234 2.2891-1.5234 2.2891 0"/>
    <path d="m63.242 57.148c0 1.3984-2.0977 1.3984-2.0977 0 0-1.3984 2.0977-1.3984 2.0977 0"/>
    <path d="m66.984 57.148c0 1.2695-1.9062 1.2695-1.9062 0 0-1.2695 1.9062-1.2695 1.9062 0"/>
    <path d="m70.727 57.148c0 1.1445-1.7148 1.1445-1.7148 0 0-1.1445 1.7148-1.1445 1.7148 0"/>
    <path d="m74.469 57.148c0 1.0195-1.5234 1.0195-1.5234 0 0-1.0156 1.5234-1.0156 1.5234 0"/>
    <path d="m78.215 57.148c0 0.89062-1.3398 0.89062-1.3398 0 0-0.89063 1.3398-0.89063 1.3398 0"/>
    <path d="m81.953 57.148c0 0.76172-1.1406 0.76172-1.1406 0 0-0.76172 1.1406-0.76172 1.1406 0"/>
    <path d="m85.699 57.148c0 0.64062-0.95703 0.64062-0.95703 0 0-0.63672 0.95703-0.63672 0.95703 0"/>
    <path d="m89.441 57.148c0 0.51172-0.76562 0.51172-0.76562 0 0-0.51172 0.76562-0.51172 0.76562 0"/>
    <path d="m59.5 60.789c0 1.5234-2.2891 1.5234-2.2891 0 0-1.5273 2.2891-1.5273 2.2891 0"/>
    <path d="m63.242 60.789c0 1.3984-2.0977 1.3984-2.0977 0 0-1.3984 2.0977-1.3984 2.0977 0"/>
    <path d="m66.984 60.789c0 1.2695-1.9062 1.2695-1.9062 0 0-1.2734 1.9062-1.2734 1.9062 0"/>
    <path d="m70.73 60.789c0 0.47266-0.38281 0.85547-0.85938 0.85547-0.47266 0-0.85547-0.38672-0.85547-0.85547 0-0.47656 0.38281-0.85937 0.85547-0.85937s0.85938 0.38281 0.85938 0.85937z"/>
    <path d="m74.469 60.789c0 1.0156-1.5234 1.0156-1.5234 0 0-1.0195 1.5234-1.0195 1.5234 0"/>
    <path d="m78.215 60.789c0 0.89063-1.3398 0.89063-1.3398 0 0-0.89453 1.3398-0.89453 1.3398 0"/>
    <path d="m81.953 60.789c0 0.76172-1.1406 0.76172-1.1406 0 0-0.76562 1.1406-0.76562 1.1406 0"/>
    <path d="m85.699 60.789c0 0.63672-0.95703 0.63672-0.95703 0 0-0.64062 0.95703-0.64062 0.95703 0"/>
    <path d="m89.441 60.789c0 0.50781-0.76562 0.50781-0.76562 0 0-0.51172 0.76562-0.51172 0.76562 0"/>
    <path d="m59.117 65.031c0 0.89062-1.3359 0.89062-1.3359 0s1.3359-0.89062 1.3359 0"/>
    <path d="m62.859 65.031c0 0.76562-1.1445 0.76562-1.1445 0 0-0.76172 1.1445-0.76172 1.1445 0"/>
    <path d="m66.602 65.031c0 0.63672-0.95312 0.63672-0.95312 0s0.95312-0.63672 0.95312 0"/>
    <path d="m70.348 65.031c0 0.51172-0.76953 0.51172-0.76953 0s0.76953-0.51172 0.76953 0"/>
    <path d="m59.117 68.973c0 0.89062-1.3359 0.89062-1.3359 0s1.3359-0.89062 1.3359 0"/>
    <path d="m62.859 68.973c0 0.76172-1.1445 0.76172-1.1445 0 0-0.76562 1.1445-0.76562 1.1445 0"/>
    <path d="m66.602 68.973c0 0.63672-0.95312 0.63672-0.95312 0 0-0.63672 0.95312-0.63672 0.95312 0"/>
    <path d="m70.344 68.973c0 0.50781-0.76172 0.50781-0.76172 0 0-0.50781 0.76172-0.50781 0.76172 0"/>
    <path d="m59.117 72.762c0 0.89062-1.3359 0.89062-1.3359 0s1.3359-0.89062 1.3359 0"/>
    <path d="m62.859 72.762c0 0.76172-1.1445 0.76172-1.1445 0 0-0.76562 1.1445-0.76562 1.1445 0"/>
    <path d="m66.602 72.762c0 0.63672-0.95312 0.63672-0.95312 0s0.95312-0.63672 0.95312 0"/>
    <path d="m70.344 72.762c0 0.50781-0.76172 0.50781-0.76172 0 0-0.50781 0.76172-0.50781 0.76172 0"/>
    <path d="m59.117 76.547c0 0.36719-0.30078 0.67188-0.66797 0.67188-0.36719 0-0.66797-0.30078-0.66797-0.67188 0-0.36719 0.30078-0.66406 0.66797-0.66406 0.36719 0 0.66797 0.29688 0.66797 0.66406z"/>
    <path d="m62.859 76.547c0 0.31641-0.25391 0.57422-0.57031 0.57422-0.31641 0-0.57422-0.25781-0.57422-0.57422 0-0.3125 0.25781-0.57031 0.57422-0.57031 0.31641 0 0.57031 0.25781 0.57031 0.57031z"/>
    <path d="m66.602 76.547c0 0.26562-0.21094 0.48047-0.47656 0.48047-0.26172 0-0.47656-0.21875-0.47656-0.48047s0.21484-0.47656 0.47656-0.47656c0.26562 0 0.47656 0.21484 0.47656 0.47656z"/>
    <path d="m40.004 80.348c0 1.0234-1.5352 1.0234-1.5352 0 0-1.0234 1.5352-1.0234 1.5352 0"/>
    <path d="m35.875 80.348c0 0.76562-1.1484 0.76562-1.1484 0 0-0.76172 1.1484-0.76172 1.1484 0"/>
    <path d="m31.941 80.348c0 0.64062-0.95703 0.64062-0.95703 0 0-0.63672 0.95703-0.63672 0.95703 0"/>
    <path d="m28.012 80.348c0 0.51172-0.76953 0.51172-0.76953 0 0-0.50781 0.76953-0.50781 0.76953 0"/>
    <path d="m59.547 53.211c0 1.6484-2.4766 1.6484-2.4766 0 0-1.6523 2.4766-1.6523 2.4766 0"/>
    <path d="m63.289 53.211c0 1.5234-2.2891 1.5234-2.2891 0 0-1.5273 2.2891-1.5273 2.2891 0"/>
    <path d="m67.031 53.211c0 1.3984-2.0977 1.3984-2.0977 0 0-1.3984 2.0977-1.3984 2.0977 0"/>
    <path d="m70.773 53.211c0 1.2695-1.9062 1.2695-1.9062 0 0-1.2734 1.9062-1.2734 1.9062 0"/>
    <path d="m74.52 53.211c0 1.1445-1.7188 1.1445-1.7188 0 0-1.1445 1.7188-1.1445 1.7188 0"/>
    <path d="m78.262 53.211c0 1.0156-1.5273 1.0156-1.5273 0 0-1.0195 1.5273-1.0195 1.5273 0"/>
    <path d="m82.004 53.211c0 0.89062-1.3398 0.89062-1.3398 0 0-0.89063 1.3398-0.89063 1.3398 0"/>
    <path d="m85.746 53.211c0 0.76172-1.1484 0.76172-1.1484 0 0-0.76563 1.1484-0.76563 1.1484 0"/>
    <path d="m89.488 53.211c0 0.63672-0.95703 0.63672-0.95703 0 0-0.64063 0.95703-0.64063 0.95703 0"/>
    <path d="m55.871 61.188c0 1.8047-2.7148 1.8047-2.7148 0 0-1.8086 2.7148-1.8086 2.7148 0"/>
    <path d="m55.988 49.445c0 1.9688-2.9531 1.9688-2.9531 0 0-1.9648 2.9531-1.9648 2.9531 0"/>
    <path d="m59.547 45.781c0 1.6523-2.4766 1.6523-2.4766 0 0-1.6484 2.4766-1.6484 2.4766 0"/>
    <path d="m63.289 45.781c0 1.5273-2.2891 1.5273-2.2891 0 0-1.5234 2.2891-1.5234 2.2891 0"/>
    <path d="m67.031 45.781c0 1.3984-2.0977 1.3984-2.0977 0s2.0977-1.3984 2.0977 0"/>
    <path d="m70.773 45.781c0 1.2734-1.9062 1.2734-1.9062 0 0-1.2695 1.9062-1.2695 1.9062 0"/>
    <path d="m74.52 45.781c0 1.1445-1.7188 1.1445-1.7188 0s1.7188-1.1445 1.7188 0"/>
    <path d="m78.262 45.781c0 1.0195-1.5273 1.0195-1.5273 0 0-1.0156 1.5273-1.0156 1.5273 0"/>
    <path d="m82.004 45.781c0 0.36719-0.30078 0.67188-0.66797 0.67188-0.36719 0-0.66797-0.30078-0.66797-0.67188 0-0.36719 0.30078-0.66797 0.66797-0.66797 0.36719 0 0.66797 0.30078 0.66797 0.66797z"/>
    <path d="m85.746 45.781c0 0.76562-1.1484 0.76562-1.1484 0 0-0.76172 1.1484-0.76172 1.1484 0"/>
    <path d="m89.488 45.781c0 0.64062-0.95703 0.64062-0.95703 0 0-0.63672 0.95703-0.63672 0.95703 0"/>
    <path d="m93.23 45.781c0 0.51172-0.76562 0.51172-0.76562 0s0.76562-0.51172 0.76562 0"/>
    <path d="m36.395 45.633c0 1.2695-1.9062 1.2695-1.9062 0 0-1.2734 1.9062-1.2734 1.9062 0"/>
    <path d="m32.461 45.633c0 1.1445-1.7148 1.1445-1.7148 0 0-1.1445 1.7148-1.1445 1.7148 0"/>
    <path d="m28.531 45.633c0 1.0195-1.5273 1.0195-1.5273 0 0-1.0195 1.5273-1.0195 1.5273 0"/>
    <path d="m24.598 45.633c0 0.89063-1.3359 0.89063-1.3359 0 0-0.89062 1.3359-0.89062 1.3359 0"/>
    <path d="m20.664 45.633c0 0.76172-1.1484 0.76172-1.1484 0 0-0.76562 1.1484-0.76562 1.1484 0"/>
    <path d="m16.73 45.633c0 0.63672-0.95703 0.63672-0.95703 0 0-0.63672 0.95703-0.63672 0.95703 0"/>
    <path d="m12.797 45.633c0 0.50781-0.76562 0.50781-0.76562 0 0-0.51172 0.76562-0.51172 0.76562 0"/>
    <path d="m35.941 30.324c0 0.76562-1.1484 0.76562-1.1484 0s1.1484-0.76562 1.1484 0"/>
    <path d="m32.008 30.324c0 0.63672-0.95703 0.63672-0.95703 0 0-0.64062 0.95703-0.64062 0.95703 0"/>
    <path d="m28.074 30.324c0 0.50781-0.76562 0.50781-0.76562 0 0-0.51172 0.76562-0.51172 0.76562 0"/>
    <path d="m36.059 34.266c0 0.91797-1.3789 0.91797-1.3789 0s1.3789-0.91797 1.3789 0"/>
    <path d="m32.008 34.266c0 0.63672-0.95703 0.63672-0.95703 0 0-0.64062 0.95703-0.64062 0.95703 0"/>
    <path d="m28.074 34.266c0 0.51172-0.76562 0.51172-0.76562 0s0.76562-0.51172 0.76562 0"/>
    <path d="m35.941 26.688c0 0.63672-0.95703 0.63672-0.95703 0s0.95703-0.63672 0.95703 0"/>
    <path d="m54.52 43.234c-0.6875 0-1.2383-0.55469-1.2383-1.2383s0.55469-1.2383 1.2383-1.2383c0.68359 0 1.2383 0.55859 1.2383 1.2383 0 0.68359-0.55469 1.2383-1.2383 1.2383z"/>
    <path d="m59.5 41.992c0 1.5273-2.2891 1.5273-2.2891 0 0-1.5234 2.2891-1.5234 2.2891 0"/>
    <path d="m63.242 41.992c0 1.3984-2.0977 1.3984-2.0977 0 0-1.3984 2.0977-1.3984 2.0977 0"/>
    <path d="m55.762 38.078c0 1.6523-2.4805 1.6523-2.4805 0s2.4805-1.6523 2.4805 0"/>
    <path d="m59.5 38.078c0 1.5273-2.2891 1.5273-2.2891 0 0-1.5234 2.2891-1.5234 2.2891 0"/>
    <path d="m63.242 38.078c0 1.3984-2.0977 1.3984-2.0977 0s2.0977-1.3984 2.0977 0"/>
    <path d="m66.984 41.992c0 1.2695-1.9062 1.2695-1.9062 0 0-1.2695 1.9062-1.2695 1.9062 0"/>
    <path d="m70.73 41.992c0 0.47266-0.38281 0.85937-0.85938 0.85937-0.47266 0-0.85547-0.39062-0.85547-0.85937 0-0.47266 0.38281-0.85938 0.85547-0.85938s0.85938 0.38672 0.85938 0.85938z"/>
    <path d="m55.512 34.266c0 1.3984-2.0977 1.3984-2.0977 0s2.0977-1.3984 2.0977 0"/>
    <path d="m59.258 34.266c0 1.2695-1.9102 1.2695-1.9102 0 0-1.2734 1.9102-1.2734 1.9102 0"/>
    <path d="m63 34.266c0 1.1445-1.7188 1.1445-1.7188 0s1.7188-1.1445 1.7188 0"/>
    <path d="m74.469 41.992c0 1.0195-1.5234 1.0195-1.5234 0 0-1.0156 1.5234-1.0156 1.5234 0"/>
    <path d="m78.215 41.992c0 0.89453-1.3398 0.89453-1.3398 0 0-0.89063 1.3398-0.89063 1.3398 0"/>
    <path d="m66.695 38.078c0 0.89062-1.3359 0.89062-1.3359 0 0-0.88672 1.3359-0.88672 1.3359 0"/>
    <path d="m81.953 41.992c0 0.76172-1.1406 0.76172-1.1406 0 0-0.76172 1.1406-0.76172 1.1406 0"/>
    <path d="m70.438 38.078c0 0.76562-1.1484 0.76562-1.1484 0 0-0.76172 1.1484-0.76172 1.1484 0"/>
    <path d="m85.699 41.992c0 0.64062-0.95703 0.64062-0.95703 0 0-0.63672 0.95703-0.63672 0.95703 0"/>
    <path d="m89.441 41.996c0 0.50781-0.76562 0.50781-0.76562 0 0-0.51172 0.76562-0.51172 0.76562 0"/>
    <path d="m73.984 38.078c0 0.51172-0.76562 0.51172-0.76562 0s0.76562-0.51172 0.76562 0"/>
    <path d="m36.395 38.078c0 1.5273-2.2891 1.5273-2.2891 0 0-1.5234 2.2891-1.5234 2.2891 0"/>
    <path d="m32.461 38.078c0 1.3984-2.0977 1.3984-2.0977 0s2.0977-1.3984 2.0977 0"/>
    <path d="m28.246 38.078c0 0.89062-1.3359 0.89062-1.3359 0s1.3359-0.89062 1.3359 0"/>
    <path d="m24.316 38.078c0 0.76562-1.1445 0.76562-1.1445 0 0-0.76172 1.1445-0.76172 1.1445 0"/>
    <path d="m20.391 38.078c0 0.51172-0.76562 0.51172-0.76562 0s0.76562-0.51172 0.76562 0"/>
    <path d="m36.395 42.02c0 1.5234-2.2891 1.5234-2.2891 0 0-1.5273 2.2891-1.5273 2.2891 0"/>
    <path d="m32.461 42.02c0 1.3984-2.0977 1.3984-2.0977 0 0-1.3984 2.0977-1.3984 2.0977 0"/>
    <path d="m28.246 42.02c0 0.89062-1.3359 0.89062-1.3359 0s1.3359-0.89062 1.3359 0"/>
    <path d="m24.316 42.02c0 0.76172-1.1445 0.76172-1.1445 0 0-0.76562 1.1445-0.76562 1.1445 0"/>
    <path d="m20.391 42.02c0 0.51172-0.76562 0.51172-0.76562 0 0-0.50781 0.76562-0.50781 0.76562 0"/>
    <path d="m55.664 30.348c0 1.3984-2.0977 1.3984-2.0977 0 0-1.3945 2.0977-1.3945 2.0977 0"/>
    <path d="m59.117 30.348c0 0.36719-0.30078 0.67188-0.66797 0.67188-0.36719 0-0.66797-0.30078-0.66797-0.67188 0-0.36719 0.30078-0.66797 0.66797-0.66797 0.36719 0 0.66797 0.30078 0.66797 0.66797z"/>
    <path d="m62.859 30.348c0 0.76562-1.1445 0.76562-1.1445 0 0-0.76172 1.1445-0.76172 1.1445 0"/>
    <path d="m66.406 30.352c0 0.51172-0.76953 0.51172-0.76953 0 0-0.51172 0.76953-0.51172 0.76953 0"/>
    <path d="m54.977 26.711c0 0.76562-1.1445 0.76562-1.1445 0 0-0.76172 1.1445-0.76172 1.1445 0"/>
    <path d="m58.523 26.711c0 0.51172-0.76563 0.51172-0.76563 0 0-0.50781 0.76563-0.50781 0.76563 0"/>
    <path d="m55.988 45.656c0 1.9688-2.9531 1.9688-2.9531 0 0-1.9648 2.9531-1.9648 2.9531 0"/>
    <path d="m55.984 53.082c0 1.9688-2.9492 1.9688-2.9492 0 0-1.9648 2.9492-1.9648 2.9492 0"/>
    <path d="m55.984 57.023c0 1.9688-2.9492 1.9688-2.9492 0 0-1.9648 2.9492-1.9648 2.9492 0"/>
    <path d="m44.48 57.023c0 1.9688-2.9531 1.9688-2.9531 0 0-1.9648 2.9531-1.9648 2.9531 0"/>
    <path d="m40.121 26.578c0 1.1836-1.7695 1.1836-1.7695 0 0-1.1797 1.7695-1.1797 1.7695 0"/>
    <path d="m40.242 30.426c0 1.3359-2.0078 1.3359-2.0078 0 0-1.3398 2.0078-1.3398 2.0078 0"/>
    <path d="m35.941 76.398c0 0.76562-1.1484 0.76562-1.1484 0 0-0.76563 1.1484-0.76563 1.1484 0"/>
    <path d="m32.008 76.398c0 0.64062-0.95703 0.64062-0.95703 0 0-0.63672 0.95703-0.63672 0.95703 0"/>
    <path d="m28.074 76.398c0 0.50781-0.76562 0.50781-0.76562 0 0-0.51172 0.76562-0.51172 0.76562 0"/>
    <path d="m40.238 76.5c0 1.3359-2.0039 1.3359-2.0039 0s2.0039-1.3359 2.0039 0"/>
    <path d="m40.355 34.27c0 1.4961-2.2383 1.4961-2.2383 0 0-1.4922 2.2383-1.4922 2.2383 0"/>
    <path d="m40.477 38.078c0 1.6523-2.4805 1.6523-2.4805 0s2.4805-1.6523 2.4805 0"/>
    <path d="m34.105 72.328c0-0.62891 0.51172-1.1445 1.1445-1.1445s1.1445 0.51562 1.1445 1.1445c0 0.63672-0.51172 1.1445-1.1445 1.1445-0.63281 0.003906-1.1445-0.50781-1.1445-1.1445z"/>
    <path d="m30.363 72.328c0-0.57422 0.46875-1.0469 1.0508-1.0469 0.57813 0 1.0508 0.47266 1.0508 1.0469 0 0.58594-0.46875 1.0547-1.0508 1.0547-0.57812 0-1.0508-0.46875-1.0508-1.0547z"/>
    <path d="m26.91 72.328c0-0.36328 0.30078-0.66406 0.66797-0.66406s0.66797 0.30078 0.66797 0.66406c0 0.37109-0.29688 0.67188-0.66797 0.67188-0.36328 0-0.66797-0.30078-0.66797-0.67188z"/>
    <path d="m23.172 72.328c0-0.3125 0.25781-0.57031 0.57422-0.57031s0.57031 0.25781 0.57031 0.57031c0 0.31641-0.25781 0.57422-0.57031 0.57422-0.32031 0-0.57422-0.25391-0.57422-0.57422z"/>
    <path d="m20.008 71.949c0.21094 0 0.38281 0.17188 0.38281 0.38281 0 0.21484-0.17188 0.38672-0.38281 0.38672-0.21094 0-0.38281-0.17188-0.38281-0.38672 0-0.21484 0.17188-0.38281 0.38281-0.38281z"/>
    <path d="m39.238 71.094c-0.6875 0-1.2383 0.55469-1.2383 1.2344 0 0.6875 0.55469 1.2383 1.2383 1.2383 0.68359 0 1.2383-0.55469 1.2383-1.2383s-0.55469-1.2344-1.2383-1.2344z"/>
    <path d="m40.594 41.965c0 1.8047-2.7109 1.8047-2.7109 0 0-1.8086 2.7109-1.8086 2.7109 0"/>
    <path d="m36.395 49.445c0 1.5273-2.2891 1.5273-2.2891 0 0-1.5234 2.2891-1.5234 2.2891 0"/>
    <path d="m32.461 49.445c0 1.3984-2.0977 1.3984-2.0977 0 0-1.3984 2.0977-1.3984 2.0977 0"/>
    <path d="m28.246 49.445c0 0.89063-1.3359 0.89063-1.3359 0 0-0.89062 1.3359-0.89062 1.3359 0"/>
    <path d="m24.316 49.445c0 0.76563-1.1445 0.76563-1.1445 0 0-0.76172 1.1445-0.76172 1.1445 0"/>
    <path d="m20.391 49.445c0 0.51172-0.76562 0.51172-0.76562 0 0-0.51172 0.76562-0.51172 0.76562 0"/>
    <path d="m39.238 48.031c-0.75 0-1.3555 0.60938-1.3555 1.3594 0 0.74609 0.60547 1.3555 1.3555 1.3555 0.74609 0 1.3555-0.60938 1.3555-1.3555 0-0.75-0.60938-1.3594-1.3555-1.3594z"/>
    <path d="m40.715 45.809c0 1.9688-2.9531 1.9688-2.9531 0s2.9531-1.9688 2.9531 0"/>
    <path d="m40.711 53.402c0 1.9688-2.9492 1.9688-2.9492 0 0-1.9648 2.9492-1.9648 2.9492 0"/>
    <path d="m36.773 57.191c0 1.6523-2.4766 1.6523-2.4766 0s2.4766-1.6523 2.4766 0"/>
    <path d="m32.844 57.191c0 1.5273-2.2891 1.5273-2.2891 0 0-1.5234 2.2891-1.5234 2.2891 0"/>
    <path d="m28.477 57.191c0 1.0195-1.5273 1.0195-1.5273 0 0-1.0195 1.5273-1.0195 1.5273 0"/>
    <path d="m24.543 57.191c0 0.89062-1.3359 0.89062-1.3359 0s1.3359-0.89062 1.3359 0"/>
    <path d="m20.609 57.191c0 0.76562-1.1445 0.76562-1.1445 0 0-0.76172 1.1445-0.76172 1.1445 0"/>
    <path d="m16.68 57.191c0 0.64062-0.95703 0.64062-0.95703 0 0-0.63672 0.95703-0.63672 0.95703 0"/>
    <path d="m12.746 57.191c0 0.51172-0.76562 0.51172-0.76562 0 0-0.50781 0.76562-0.50781 0.76562 0"/>
    <path d="m8.7383 57.191c0 0.42188-0.63281 0.42188-0.63281 0s0.63281-0.42188 0.63281 0"/>
    <path d="m4.7617 57.191c0 0.375-0.5625 0.375-0.5625 0 0-0.37109 0.5625-0.37109 0.5625 0"/>
    <path d="m40.711 57.191c0 1.9688-2.9492 1.9688-2.9492 0 0-1.9648 2.9492-1.9648 2.9492 0"/>
    <path d="m36.773 60.98c0 1.6523-2.4766 1.6523-2.4766 0 0-1.6484 2.4766-1.6484 2.4766 0"/>
    <path d="m32.844 60.98c0 1.5273-2.2891 1.5273-2.2891 0 0-1.5234 2.2891-1.5234 2.2891 0"/>
    <path d="m26.949 60.98c0-0.42188 0.34375-0.76172 0.76562-0.76172s0.76172 0.33984 0.76172 0.76172c0 0.42578-0.34375 0.76562-0.76172 0.76562-0.42188 0-0.76562-0.33984-0.76562-0.76562z"/>
    <path d="m23.207 60.984c0-0.36719 0.30078-0.67188 0.66797-0.67188s0.66797 0.30078 0.66797 0.67188c0 0.36719-0.30078 0.66406-0.66797 0.66406s-0.66797-0.29688-0.66797-0.66406z"/>
    <path d="m20.609 60.984c0 0.76172-1.1445 0.76172-1.1445 0 0-0.76562 1.1445-0.76562 1.1445 0"/>
    <path d="m16.68 60.98c0 0.64062-0.95703 0.64062-0.95703 0 0-0.63672 0.95703-0.63672 0.95703 0"/>
    <path d="m12.746 60.98c0 0.51172-0.76562 0.51172-0.76562 0 0-0.50781 0.76562-0.50781 0.76562 0"/>
    <path d="m8.7383 60.98c0 0.42578-0.63281 0.42578-0.63281 0 0-0.42188 0.63281-0.42188 0.63281 0"/>
    <path d="m4.7617 60.98c0 0.375-0.5625 0.375-0.5625 0 0-0.37109 0.5625-0.37109 0.5625 0"/>
    <path d="m74.074 65.074c0 0.375-0.55859 0.375-0.55859 0s0.55859-0.375 0.55859 0"/>
    <path d="m74.074 68.863c0 0.37109-0.55859 0.37109-0.55859 0 0-0.375 0.55859-0.375 0.55859 0"/>
    <path d="m40.473 64.922c0 1.6523-2.4766 1.6523-2.4766 0 0-1.6484 2.4766-1.6484 2.4766 0"/>
    <path d="m36.633 64.922c0 1.5273-2.2891 1.5273-2.2891 0 0-1.5234 2.2891-1.5234 2.2891 0"/>
    <path d="m32.266 64.922c0 1.0195-1.5273 1.0195-1.5273 0 0-1.0156 1.5273-1.0156 1.5273 0"/>
    <path d="m28.336 64.922c0 0.89453-1.3398 0.89453-1.3398 0 0-0.89062 1.3398-0.89062 1.3398 0"/>
    <path d="m24.402 64.922c0 0.76562-1.1484 0.76562-1.1484 0s1.1484-0.76562 1.1484 0"/>
    <path d="m20.469 64.922c0 0.63672-0.95703 0.63672-0.95703 0s0.95703-0.63672 0.95703 0"/>
    <path d="m16.535 64.922c0 0.51172-0.76562 0.51172-0.76562 0 0-0.50781 0.76562-0.50781 0.76562 0"/>
    <path d="m12.527 64.922c0 0.42188-0.63281 0.42188-0.63281 0s0.63281-0.42188 0.63281 0"/>
    <path d="m8.5508 64.922c0 0.375-0.55859 0.375-0.55859 0 0-0.37109 0.55859-0.37109 0.55859 0"/>
    <path d="m40.477 68.711c0 1.6523-2.4805 1.6523-2.4805 0 0-1.6523 2.4805-1.6523 2.4805 0"/>
    <path d="m36.633 68.711c0 1.5273-2.2891 1.5273-2.2891 0 0-1.5234 2.2891-1.5234 2.2891 0"/>
    <path d="m32.266 68.711c0 1.0195-1.5273 1.0195-1.5273 0 0-1.0195 1.5273-1.0195 1.5273 0"/>
    <path d="m28.336 68.711c0 0.89453-1.3398 0.89453-1.3398 0 0-0.89063 1.3398-0.89063 1.3398 0"/>
    <path d="m24.402 68.711c0 0.76562-1.1484 0.76562-1.1484 0 0-0.76563 1.1484-0.76563 1.1484 0"/>
    <path d="m20.469 68.711c0 0.63672-0.95703 0.63672-0.95703 0 0-0.63672 0.95703-0.63672 0.95703 0"/>
    <path d="m16.535 68.711c0 0.51172-0.76562 0.51172-0.76562 0 0-0.50781 0.76562-0.50781 0.76562 0"/>
    <path d="m12.527 68.715c0 0.42188-0.63281 0.42188-0.63281 0 0-0.42578 0.63281-0.42578 0.63281 0"/>
    <path d="m40.715 60.98c0 1.9688-2.9531 1.9688-2.9531 0 0-1.9648 2.9531-1.9648 2.9531 0"/>
  </g>
</svg>
