<?xml version="1.0" encoding="UTF-8"?>
<svg fill="#243C5A" width="100pt" height="100pt" version="1.1" viewBox="0 0 100 100" xmlns="http://www.w3.org/2000/svg">
 <g>
  <path d="m50.102 53.301c-4.1016 0-7.5 3.3008-7.5 7.5s3.3008 7.5 7.5 7.5c4.1016 0 7.5-3.3008 7.5-7.5s-3.4023-7.5-7.5-7.5z"/>
  <path d="m45 39.301c0-4.1016-3.3008-7.5-7.5-7.5s-7.5 3.3008-7.5 7.5 3.3008 7.5 7.5 7.5 7.5-3.4023 7.5-7.5z"/>
  <path d="m62.5 31.801c-4.1016 0-7.5 3.3008-7.5 7.5s3.3008 7.5 7.5 7.5 7.5-3.3008 7.5-7.5-3.3984-7.5-7.5-7.5z"/>
 </g>
</svg>
