<?xml version="1.0" encoding="UTF-8"?>
<svg style="width: 20px; height: 19px; fill: currentColor;"
  xmlns="http://www.w3.org/2000/svg">
  <path
    d="M10 0c1.814 0 3.487.435 5.02 1.306a9.827 9.827 0 0 1 3.639
    3.542A9.33 9.33 0 0 1 20 9.734c0 2.121-.636 4.03-1.908 5.723a9.783
    9.783 0 0 1-4.928 3.518c-.234.042-.408.012-.52-.09a.49.49 0 0
    1-.17-.38l.006-.969c.005-.621.007-1.19.007-1.705
    0-.82-.226-1.42-.677-1.8.495-.05.94-.126 1.335-.228a5.4 5.4 0 0 0
    1.223-.494 3.62 3.62 0 0 0
    1.055-.843c.282-.334.512-.777.69-1.33.178-.554.267-1.19.267-1.909a3.7
    3.7 0 0
    0-1.028-2.61c.32-.77.286-1.631-.105-2.586-.243-.076-.594-.03-1.054.14-.46.168-.86.354-1.198.557l-.495.304a9.478
    9.478 0 0 0-2.5-.33c-.86 0-1.693.11-2.5.33a11.6 11.6 0 0
    0-.553-.342c-.23-.135-.593-.298-1.088-.488-.494-.19-.863-.247-1.106-.171-.391.955-.426
    1.816-.105 2.585A3.7 3.7 0 0 0 3.62 9.227c0 .719.089 1.352.267
    1.902.178.549.406.993.683 1.33.278.339.627.622 1.048.85a5.4 5.4 0
    0 0 1.224.494c.395.102.84.178 1.335.228-.338.305-.551.74-.638
    1.306a2.631 2.631 0 0 1-.586.19 3.782 3.782 0 0 1-.742.063c-.287
    0-.57-.09-.853-.272a2.256 2.256 0 0 1-.723-.792 2.068 2.068 0 0
    0-.631-.66c-.256-.168-.471-.27-.645-.304l-.26-.038c-.182
    0-.308.02-.378.057-.07.038-.09.087-.065.146.026.06.065.118.117.178.053.059.109.11.17.152l.09.063c.192.085.38.245.567.482.187.236.324.452.41.646l.13.292c.113.32.304.58.574.78.269.198.56.325.872.38.312.054.614.084.905.088.29.004.532-.01.723-.044l.299-.05c0
    .32.002.694.007 1.12l.006.692a.49.49 0 0
    1-.17.38c-.112.101-.286.13-.52.089a9.783 9.783 0 0
    1-4.928-3.518C.636 13.763 0 11.855 0 9.734a9.33 9.33 0 0 1
    1.341-4.886 9.827 9.827 0 0 1 3.64-3.542C6.512.436 8.185 0 10
    0zM3.79
    13.98c.025-.058-.005-.11-.092-.151-.087-.026-.143-.017-.17.025-.025.06.005.11.092.152.078.05.134.042.17-.025zm.403.432c.06-.043.052-.11-.026-.203-.087-.076-.157-.089-.209-.038-.06.042-.052.11.026.203.087.084.157.097.209.038zm.39.57c.078-.06.078-.14
    0-.24-.07-.11-.143-.136-.221-.077-.078.042-.078.118 0
    .228.078.11.152.14.221.089zm.547.532c.07-.067.052-.148-.052-.24-.104-.102-.19-.115-.26-.039-.078.068-.061.148.052.241.104.102.19.114.26.038zm.742.317c.026-.093-.03-.16-.169-.203-.13-.033-.213-.004-.247.09-.035.092.021.155.169.19.13.05.213.025.247-.077zm.82.064c0-.11-.073-.157-.22-.14-.14
    0-.209.047-.209.14 0 .11.074.156.221.139.14 0
    .209-.046.209-.14zm.756-.127c-.017-.093-.096-.131-.234-.114-.14.025-.2.088-.183.19.018.101.096.135.235.101.139-.034.2-.093.182-.177z"
    fill-rule="nonzero" />
</svg>
