<?xml version="1.0" encoding="UTF-8"?>
<svg fill="#DD5106" width="100pt" height="100pt" version="1.1" viewBox="0 0 100 100" xmlns="http://www.w3.org/2000/svg">
 <g>
  <path d="m31.602 33.801-5.3984-5.3984c-0.80078-0.80078-2.1016-0.80078-2.8984 0l-20.203 20.098c-0.80078 0.80078-0.80078 2.1016 0 2.8984l20.199 20.199c0.80078 0.80078 2.1016 0.80078 2.8984 0l5.3984-5.3984c0.80078-0.80078 0.80078-2.1016 0-2.8984l-13.297-13.301 13.301-13.301c0.79688-0.80078 0.79688-2.0977 0-2.8984z"/>
  <path d="m96.898 48.5-20.199-20.102c-0.80078-0.80078-2.1016-0.80078-2.8984 0l-5.3984 5.3984c-0.80078 0.80078-0.80078 2.1016 0 2.8984l13.297 13.305-13.301 13.301c-0.80078 0.80078-0.80078 2.1016 0 2.8984l5.3984 5.3984c0.80078 0.80078 2.1016 0.80078 2.8984 0l20.102-20.199c0.90234-0.69922 0.90234-2.0977 0.10156-2.8984z"/>
  <path d="m60.898 25.5h-6.5c-0.89844 0-1.6992 0.60156-2 1.3984l-15.297 44.801c-0.5 1.3984 0.5 2.8008 2 2.8008h6.5c0.89844 0 1.6992-0.60156 2-1.3984l15.398-44.801c0.39844-1.4023-0.60156-2.8008-2.1016-2.8008z"/>
 </g>
</svg>
