<?xml version="1.0" encoding="UTF-8"?>
<svg style="width: 300pt; height: 300pt;" fill="#284569"version="1.1" viewBox="0 0 100 100"
  xmlns="http://www.w3.org/2000/svg">
  <g>
    <path d="m30.301 3c0 1.6016-2.4023 1.6016-2.4023 0s2.4023-1.6016 2.4023 0" />
    <path d="m33.801 3c0 1.6016-2.4023 1.6016-2.4023 0s2.4023-1.6016 2.4023 0" />
    <path d="m37.301 3c0 1.6016-2.4023 1.6016-2.4023 0s2.4023-1.6016 2.4023 0" />
    <path d="m40.699 3c0 1.6016-2.3984 1.6016-2.3984 0s2.3984-1.6016 2.3984 0" />
    <path d="m44.199 3c0 1.6016-2.3984 1.6016-2.3984 0s2.3984-1.6016 2.3984 0" />
    <path d="m47.699 3c0 1.6016-2.3984 1.6016-2.3984 0s2.3984-1.6016 2.3984 0" />
    <path d="m51.199 3c0 1.6016-2.3984 1.6016-2.3984 0s2.3984-1.6016 2.3984 0" />
    <path d="m54.699 3c0 1.6016-2.3984 1.6016-2.3984 0s2.3984-1.6016 2.3984 0" />
    <path d="m30.301 6.5c0 1.6016-2.4023 1.6016-2.4023 0s2.4023-1.6016 2.4023 0" />
    <path d="m33.801 6.5c0 1.6016-2.4023 1.6016-2.4023 0s2.4023-1.6016 2.4023 0" />
    <path d="m37.301 6.5c0 1.6016-2.4023 1.6016-2.4023 0s2.4023-1.6016 2.4023 0" />
    <path d="m40.699 6.5c0 1.6016-2.3984 1.6016-2.3984 0s2.3984-1.6016 2.3984 0" />
    <path d="m44.199 6.5c0 1.6016-2.3984 1.6016-2.3984 0s2.3984-1.6016 2.3984 0" />
    <path d="m47.699 6.5c0 1.6016-2.3984 1.6016-2.3984 0s2.3984-1.6016 2.3984 0" />
    <path d="m51.199 6.5c0 1.6016-2.3984 1.6016-2.3984 0s2.3984-1.6016 2.3984 0" />
    <path d="m54.699 6.5c0 1.6016-2.3984 1.6016-2.3984 0s2.3984-1.6016 2.3984 0" />
    <path d="m30.301 9.8984c0 1.6016-2.4023 1.6016-2.4023 0 0-1.5977 2.4023-1.5977 2.4023 0" />
    <path d="m33.801 9.8984c0 1.6016-2.4023 1.6016-2.4023 0 0-1.5977 2.4023-1.5977 2.4023 0" />
    <path d="m37.301 9.8984c0 1.6016-2.4023 1.6016-2.4023 0 0-1.5977 2.4023-1.5977 2.4023 0" />
    <path d="m40.699 9.8984c0 1.6016-2.3984 1.6016-2.3984 0 0-1.5977 2.3984-1.5977 2.3984 0" />
    <path d="m44.199 9.8984c0 1.6016-2.3984 1.6016-2.3984 0 0-1.5977 2.3984-1.5977 2.3984 0" />
    <path d="m47.699 9.8984c0 1.6016-2.3984 1.6016-2.3984 0 0-1.5977 2.3984-1.5977 2.3984 0" />
    <path d="m51.199 9.8984c0 1.6016-2.3984 1.6016-2.3984 0 0-1.5977 2.3984-1.5977 2.3984 0" />
    <path d="m54.699 9.8984c0 1.6016-2.3984 1.6016-2.3984 0 0-1.5977 2.3984-1.5977 2.3984 0" />
    <path d="m30.301 13.398c0 1.6016-2.4023 1.6016-2.4023 0 0-1.5977 2.4023-1.5977 2.4023 0" />
    <path d="m33.801 13.398c0 1.6016-2.4023 1.6016-2.4023 0 0-1.5977 2.4023-1.5977 2.4023 0" />
    <path d="m37.301 13.398c0 1.6016-2.4023 1.6016-2.4023 0 0-1.5977 2.4023-1.5977 2.4023 0" />
    <path d="m40.699 13.398c0 1.6016-2.3984 1.6016-2.3984 0 0-1.5977 2.3984-1.5977 2.3984 0" />
    <path d="m44.199 13.398c0 1.6016-2.3984 1.6016-2.3984 0 0-1.5977 2.3984-1.5977 2.3984 0" />
    <path d="m47.699 13.398c0 1.6016-2.3984 1.6016-2.3984 0 0-1.5977 2.3984-1.5977 2.3984 0" />
    <path d="m51.199 13.398c0 1.6016-2.3984 1.6016-2.3984 0 0-1.5977 2.3984-1.5977 2.3984 0" />
    <path d="m54.699 13.398c0 1.6016-2.3984 1.6016-2.3984 0 0-1.5977 2.3984-1.5977 2.3984 0" />
    <path d="m30.301 16.898c0 1.6016-2.4023 1.6016-2.4023 0 0-1.5977 2.4023-1.5977 2.4023 0" />
    <path d="m33.801 16.898c0 1.6016-2.4023 1.6016-2.4023 0 0-1.5977 2.4023-1.5977 2.4023 0" />
    <path d="m37.301 16.898c0 1.6016-2.4023 1.6016-2.4023 0 0-1.5977 2.4023-1.5977 2.4023 0" />
    <path d="m40.699 16.898c0 1.6016-2.3984 1.6016-2.3984 0 0-1.5977 2.3984-1.5977 2.3984 0" />
    <path d="m44.199 16.898c0 1.6016-2.3984 1.6016-2.3984 0 0-1.5977 2.3984-1.5977 2.3984 0" />
    <path d="m47.699 16.898c0 1.6016-2.3984 1.6016-2.3984 0 0-1.5977 2.3984-1.5977 2.3984 0" />
    <path d="m51.199 16.898c0 1.6016-2.3984 1.6016-2.3984 0 0-1.5977 2.3984-1.5977 2.3984 0" />
    <path d="m54.699 16.898c0 1.6016-2.3984 1.6016-2.3984 0 0-1.5977 2.3984-1.5977 2.3984 0" />
    <path d="m30.301 20.398c0 1.6016-2.4023 1.6016-2.4023 0 0-1.5977 2.4023-1.5977 2.4023 0" />
    <path d="m33.801 20.398c0 1.6016-2.4023 1.6016-2.4023 0 0-1.5977 2.4023-1.5977 2.4023 0" />
    <path d="m37.301 20.398c0 1.6016-2.4023 1.6016-2.4023 0 0-1.5977 2.4023-1.5977 2.4023 0" />
    <path d="m40.699 20.398c0 1.6016-2.3984 1.6016-2.3984 0 0-1.5977 2.3984-1.5977 2.3984 0" />
    <path d="m44.199 20.398c0 1.6016-2.3984 1.6016-2.3984 0 0-1.5977 2.3984-1.5977 2.3984 0" />
    <path d="m47.699 20.398c0 1.6016-2.3984 1.6016-2.3984 0 0-1.5977 2.3984-1.5977 2.3984 0" />
    <path d="m51.199 20.398c0 1.6016-2.3984 1.6016-2.3984 0 0-1.5977 2.3984-1.5977 2.3984 0" />
    <path d="m54.699 20.398c0 1.6016-2.3984 1.6016-2.3984 0 0-1.5977 2.3984-1.5977 2.3984 0" />
    <path d="m30.301 23.898c0 1.6016-2.4023 1.6016-2.4023 0 0-1.5977 2.4023-1.5977 2.4023 0" />
    <path d="m33.801 23.898c0 1.6016-2.4023 1.6016-2.4023 0 0-1.5977 2.4023-1.5977 2.4023 0" />
    <path d="m37.301 23.898c0 1.6016-2.4023 1.6016-2.4023 0 0-1.5977 2.4023-1.5977 2.4023 0" />
    <path d="m40.699 23.898c0 1.6016-2.3984 1.6016-2.3984 0 0-1.5977 2.3984-1.5977 2.3984 0" />
    <path d="m44.199 23.898c0 1.6016-2.3984 1.6016-2.3984 0 0-1.5977 2.3984-1.5977 2.3984 0" />
    <path d="m47.699 23.898c0 1.6016-2.3984 1.6016-2.3984 0 0-1.5977 2.3984-1.5977 2.3984 0" />
    <path d="m51.199 23.898c0 1.6016-2.3984 1.6016-2.3984 0 0-1.5977 2.3984-1.5977 2.3984 0" />
    <path d="m54.699 23.898c0 1.6016-2.3984 1.6016-2.3984 0 0-1.5977 2.3984-1.5977 2.3984 0" />
    <path d="m58.199 23.898c0 1.6016-2.3984 1.6016-2.3984 0 0-1.5977 2.3984-1.5977 2.3984 0" />
    <path d="m30.301 27.398c0 1.6016-2.4023 1.6016-2.4023 0 0-1.5977 2.4023-1.5977 2.4023 0" />
    <path d="m33.801 27.398c0 1.6016-2.4023 1.6016-2.4023 0 0-1.5977 2.4023-1.5977 2.4023 0" />
    <path d="m37.301 27.398c0 1.6016-2.4023 1.6016-2.4023 0 0-1.5977 2.4023-1.5977 2.4023 0" />
    <path d="m40.699 27.398c0 1.6016-2.3984 1.6016-2.3984 0 0-1.5977 2.3984-1.5977 2.3984 0" />
    <path d="m44.199 27.398c0 1.6016-2.3984 1.6016-2.3984 0 0-1.5977 2.3984-1.5977 2.3984 0" />
    <path d="m47.699 27.398c0 1.6016-2.3984 1.6016-2.3984 0 0-1.5977 2.3984-1.5977 2.3984 0" />
    <path d="m51.199 27.398c0 1.6016-2.3984 1.6016-2.3984 0 0-1.5977 2.3984-1.5977 2.3984 0" />
    <path d="m54.699 27.398c0 1.6016-2.3984 1.6016-2.3984 0 0-1.5977 2.3984-1.5977 2.3984 0" />
    <path d="m58.199 27.398c0 1.6016-2.3984 1.6016-2.3984 0 0-1.5977 2.3984-1.5977 2.3984 0" />
    <path d="m61.699 27.398c0 1.6016-2.3984 1.6016-2.3984 0 0-1.5977 2.3984-1.5977 2.3984 0" />
    <path d="m65.102 27.398c0 1.6016-2.4023 1.6016-2.4023 0 0-1.5977 2.4023-1.5977 2.4023 0" />
    <path d="m30.301 30.801c0 1.5977-2.4023 1.5977-2.4023 0 0-1.6016 2.4023-1.6016 2.4023 0" />
    <path d="m33.801 30.801c0 1.5977-2.4023 1.5977-2.4023 0 0-1.6016 2.4023-1.6016 2.4023 0" />
    <path d="m37.301 30.801c0 1.5977-2.4023 1.5977-2.4023 0 0-1.6016 2.4023-1.6016 2.4023 0" />
    <path d="m40.699 30.801c0 1.5977-2.3984 1.5977-2.3984 0 0-1.6016 2.3984-1.6016 2.3984 0" />
    <path d="m44.199 30.801c0 1.5977-2.3984 1.5977-2.3984 0 0-1.6016 2.3984-1.6016 2.3984 0" />
    <path d="m47.699 30.801c0 1.5977-2.3984 1.5977-2.3984 0 0-1.6016 2.3984-1.6016 2.3984 0" />
    <path d="m51.199 30.801c0 1.5977-2.3984 1.5977-2.3984 0 0-1.6016 2.3984-1.6016 2.3984 0" />
    <path d="m54.699 30.801c0 1.5977-2.3984 1.5977-2.3984 0 0-1.6016 2.3984-1.6016 2.3984 0" />
    <path d="m58.199 30.801c0 1.5977-2.3984 1.5977-2.3984 0 0-1.6016 2.3984-1.6016 2.3984 0" />
    <path d="m61.699 30.801c0 1.5977-2.3984 1.5977-2.3984 0 0-1.6016 2.3984-1.6016 2.3984 0" />
    <path d="m65.102 30.801c0 1.5977-2.4023 1.5977-2.4023 0 0-1.6016 2.4023-1.6016 2.4023 0" />
    <path d="m68.602 30.801c0 1.5977-2.4023 1.5977-2.4023 0 0-1.6016 2.4023-1.6016 2.4023 0" />
    <path d="m72.102 30.801c0 1.5977-2.4023 1.5977-2.4023 0 0-1.6016 2.4023-1.6016 2.4023 0" />
    <path d="m75.602 30.801c0 1.5977-2.4023 1.5977-2.4023 0 0-1.6016 2.4023-1.6016 2.4023 0" />
    <path d="m79.102 30.801c0 1.5977-2.4023 1.5977-2.4023 0 0-1.6016 2.4023-1.6016 2.4023 0" />
    <path d="m82.602 30.801c0 1.5977-2.4023 1.5977-2.4023 0 0-1.6016 2.4023-1.6016 2.4023 0" />
    <path d="m86 30.801c0 1.5977-2.3984 1.5977-2.3984 0 0-1.6016 2.3984-1.6016 2.3984 0" />
    <path d="m89.5 30.801c0 1.5977-2.3984 1.5977-2.3984 0 0-1.6016 2.3984-1.6016 2.3984 0" />
    <path d="m93 30.801c0 1.5977-2.3984 1.5977-2.3984 0 0-1.6016 2.3984-1.6016 2.3984 0" />
    <path d="m30.301 34.301c0 1.5977-2.4023 1.5977-2.4023 0 0-1.6016 2.4023-1.6016 2.4023 0" />
    <path d="m33.801 34.301c0 1.5977-2.4023 1.5977-2.4023 0 0-1.6016 2.4023-1.6016 2.4023 0" />
    <path d="m37.301 34.301c0 1.5977-2.4023 1.5977-2.4023 0 0-1.6016 2.4023-1.6016 2.4023 0" />
    <path d="m40.699 34.301c0 1.5977-2.3984 1.5977-2.3984 0 0-1.6016 2.3984-1.6016 2.3984 0" />
    <path d="m44.199 34.301c0 1.5977-2.3984 1.5977-2.3984 0 0-1.6016 2.3984-1.6016 2.3984 0" />
    <path d="m47.699 34.301c0 1.5977-2.3984 1.5977-2.3984 0 0-1.6016 2.3984-1.6016 2.3984 0" />
    <path d="m51.199 34.301c0 1.5977-2.3984 1.5977-2.3984 0 0-1.6016 2.3984-1.6016 2.3984 0" />
    <path d="m54.699 34.301c0 1.5977-2.3984 1.5977-2.3984 0 0-1.6016 2.3984-1.6016 2.3984 0" />
    <path d="m58.199 34.301c0 1.5977-2.3984 1.5977-2.3984 0 0-1.6016 2.3984-1.6016 2.3984 0" />
    <path d="m61.699 34.301c0 1.5977-2.3984 1.5977-2.3984 0 0-1.6016 2.3984-1.6016 2.3984 0" />
    <path d="m65.102 34.301c0 1.5977-2.4023 1.5977-2.4023 0 0-1.6016 2.4023-1.6016 2.4023 0" />
    <path d="m68.602 34.301c0 1.5977-2.4023 1.5977-2.4023 0 0-1.6016 2.4023-1.6016 2.4023 0" />
    <path d="m72.102 34.301c0 1.5977-2.4023 1.5977-2.4023 0 0-1.6016 2.4023-1.6016 2.4023 0" />
    <path d="m75.602 34.301c0 1.5977-2.4023 1.5977-2.4023 0 0-1.6016 2.4023-1.6016 2.4023 0" />
    <path d="m79.102 34.301c0 1.5977-2.4023 1.5977-2.4023 0 0-1.6016 2.4023-1.6016 2.4023 0" />
    <path d="m82.602 34.301c0 1.5977-2.4023 1.5977-2.4023 0 0-1.6016 2.4023-1.6016 2.4023 0" />
    <path d="m86 34.301c0 1.5977-2.3984 1.5977-2.3984 0 0-1.6016 2.3984-1.6016 2.3984 0" />
    <path d="m89.5 34.301c0 1.5977-2.3984 1.5977-2.3984 0 0-1.6016 2.3984-1.6016 2.3984 0" />
    <path d="m93 34.301c0 1.5977-2.3984 1.5977-2.3984 0 0-1.6016 2.3984-1.6016 2.3984 0" />
    <path d="m96.5 34.301c0 1.5977-2.3984 1.5977-2.3984 0 0-1.6016 2.3984-1.6016 2.3984 0" />
    <path d="m30.301 37.801c0 1.5977-2.4023 1.5977-2.4023 0 0-1.6016 2.4023-1.6016 2.4023 0" />
    <path d="m33.801 37.801c0 1.5977-2.4023 1.5977-2.4023 0 0-1.6016 2.4023-1.6016 2.4023 0" />
    <path d="m37.301 37.801c0 1.5977-2.4023 1.5977-2.4023 0 0-1.6016 2.4023-1.6016 2.4023 0" />
    <path d="m40.699 37.801c0 1.5977-2.3984 1.5977-2.3984 0 0-1.6016 2.3984-1.6016 2.3984 0" />
    <path d="m44.199 37.801c0 1.5977-2.3984 1.5977-2.3984 0 0-1.6016 2.3984-1.6016 2.3984 0" />
    <path d="m47.699 37.801c0 1.5977-2.3984 1.5977-2.3984 0 0-1.6016 2.3984-1.6016 2.3984 0" />
    <path d="m51.199 37.801c0 1.5977-2.3984 1.5977-2.3984 0 0-1.6016 2.3984-1.6016 2.3984 0" />
    <path d="m54.699 37.801c0 1.5977-2.3984 1.5977-2.3984 0 0-1.6016 2.3984-1.6016 2.3984 0" />
    <path d="m58.199 37.801c0 1.5977-2.3984 1.5977-2.3984 0 0-1.6016 2.3984-1.6016 2.3984 0" />
    <path d="m61.699 37.801c0 1.5977-2.3984 1.5977-2.3984 0 0-1.6016 2.3984-1.6016 2.3984 0" />
    <path d="m65.102 37.801c0 1.5977-2.4023 1.5977-2.4023 0 0-1.6016 2.4023-1.6016 2.4023 0" />
    <path d="m68.602 37.801c0 1.5977-2.4023 1.5977-2.4023 0 0-1.6016 2.4023-1.6016 2.4023 0" />
    <path d="m72.102 37.801c0 1.5977-2.4023 1.5977-2.4023 0 0-1.6016 2.4023-1.6016 2.4023 0" />
    <path d="m75.602 37.801c0 1.5977-2.4023 1.5977-2.4023 0 0-1.6016 2.4023-1.6016 2.4023 0" />
    <path d="m79.102 37.801c0 1.5977-2.4023 1.5977-2.4023 0 0-1.6016 2.4023-1.6016 2.4023 0" />
    <path d="m82.602 37.801c0 1.5977-2.4023 1.5977-2.4023 0 0-1.6016 2.4023-1.6016 2.4023 0" />
    <path d="m86 37.801c0 1.5977-2.3984 1.5977-2.3984 0 0-1.6016 2.3984-1.6016 2.3984 0" />
    <path d="m89.5 37.801c0 1.5977-2.3984 1.5977-2.3984 0 0-1.6016 2.3984-1.6016 2.3984 0" />
    <path d="m93 37.801c0 1.5977-2.3984 1.5977-2.3984 0 0-1.6016 2.3984-1.6016 2.3984 0" />
    <path d="m96.5 37.801c0 1.5977-2.3984 1.5977-2.3984 0 0-1.6016 2.3984-1.6016 2.3984 0" />
    <path d="m30.301 41.301c0 1.5977-2.4023 1.5977-2.4023 0 0-1.6016 2.4023-1.6016 2.4023 0" />
    <path d="m33.801 41.301c0 1.5977-2.4023 1.5977-2.4023 0 0-1.6016 2.4023-1.6016 2.4023 0" />
    <path d="m37.301 41.301c0 1.5977-2.4023 1.5977-2.4023 0 0-1.6016 2.4023-1.6016 2.4023 0" />
    <path d="m40.699 41.301c0 1.5977-2.3984 1.5977-2.3984 0 0-1.6016 2.3984-1.6016 2.3984 0" />
    <path d="m44.199 41.301c0 1.5977-2.3984 1.5977-2.3984 0 0-1.6016 2.3984-1.6016 2.3984 0" />
    <path d="m47.699 41.301c0 1.5977-2.3984 1.5977-2.3984 0 0-1.6016 2.3984-1.6016 2.3984 0" />
    <path d="m51.199 41.301c0 1.5977-2.3984 1.5977-2.3984 0 0-1.6016 2.3984-1.6016 2.3984 0" />
    <path d="m54.699 41.301c0 1.5977-2.3984 1.5977-2.3984 0 0-1.6016 2.3984-1.6016 2.3984 0" />
    <path d="m58.199 41.301c0 1.5977-2.3984 1.5977-2.3984 0 0-1.6016 2.3984-1.6016 2.3984 0" />
    <path d="m61.699 41.301c0 1.5977-2.3984 1.5977-2.3984 0 0-1.6016 2.3984-1.6016 2.3984 0" />
    <path d="m65.102 41.301c0 1.5977-2.4023 1.5977-2.4023 0 0-1.6016 2.4023-1.6016 2.4023 0" />
    <path d="m68.602 41.301c0 1.5977-2.4023 1.5977-2.4023 0 0-1.6016 2.4023-1.6016 2.4023 0" />
    <path d="m72.102 41.301c0 1.5977-2.4023 1.5977-2.4023 0 0-1.6016 2.4023-1.6016 2.4023 0" />
    <path d="m75.602 41.301c0 1.5977-2.4023 1.5977-2.4023 0 0-1.6016 2.4023-1.6016 2.4023 0" />
    <path d="m79.102 41.301c0 1.5977-2.4023 1.5977-2.4023 0 0-1.6016 2.4023-1.6016 2.4023 0" />
    <path d="m82.602 41.301c0 1.5977-2.4023 1.5977-2.4023 0 0-1.6016 2.4023-1.6016 2.4023 0" />
    <path d="m86 41.301c0 1.5977-2.3984 1.5977-2.3984 0 0-1.6016 2.3984-1.6016 2.3984 0" />
    <path d="m89.5 41.301c0 1.5977-2.3984 1.5977-2.3984 0 0-1.6016 2.3984-1.6016 2.3984 0" />
    <path d="m93 41.301c0 1.5977-2.3984 1.5977-2.3984 0 0-1.6016 2.3984-1.6016 2.3984 0" />
    <path d="m96.5 41.301c0 1.5977-2.3984 1.5977-2.3984 0 0-1.6016 2.3984-1.6016 2.3984 0" />
    <path d="m2.3984 44.801c0 1.5977-2.3984 1.5977-2.3984 0 0-1.6016 2.3984-1.6016 2.3984 0" />
    <path d="m5.8984 44.801c0 1.5977-2.3984 1.5977-2.3984 0 0-1.6016 2.3984-1.6016 2.3984 0" />
    <path d="m9.3984 44.801c0 1.5977-2.3984 1.5977-2.3984 0 0-1.6016 2.3984-1.6016 2.3984 0" />
    <path d="m12.898 44.801c0 1.5977-2.3984 1.5977-2.3984 0 0-1.6016 2.3984-1.6016 2.3984 0" />
    <path d="m16.398 44.801c0 1.5977-2.3984 1.5977-2.3984 0 0-1.6016 2.3984-1.6016 2.3984 0" />
    <path d="m19.801 44.801c0 1.5977-2.4023 1.5977-2.4023 0 0-1.6016 2.4023-1.6016 2.4023 0" />
    <path d="m23.301 44.801c0 1.5977-2.4023 1.5977-2.4023 0 0-1.6016 2.4023-1.6016 2.4023 0" />
    <path d="m26.801 44.801c0 1.5977-2.4023 1.5977-2.4023 0 0-1.6016 2.4023-1.6016 2.4023 0" />
    <path d="m30.301 44.801c0 1.5977-2.4023 1.5977-2.4023 0 0-1.6016 2.4023-1.6016 2.4023 0" />
    <path d="m33.801 44.801c0 1.5977-2.4023 1.5977-2.4023 0 0-1.6016 2.4023-1.6016 2.4023 0" />
    <path d="m37.301 44.801c0 1.5977-2.4023 1.5977-2.4023 0 0-1.6016 2.4023-1.6016 2.4023 0" />
    <path d="m40.699 44.801c0 1.5977-2.3984 1.5977-2.3984 0 0-1.6016 2.3984-1.6016 2.3984 0" />
    <path d="m44.199 44.801c0 1.5977-2.3984 1.5977-2.3984 0 0-1.6016 2.3984-1.6016 2.3984 0" />
    <path d="m47.699 44.801c0 1.5977-2.3984 1.5977-2.3984 0 0-1.6016 2.3984-1.6016 2.3984 0" />
    <path d="m51.199 44.801c0 1.5977-2.3984 1.5977-2.3984 0 0-1.6016 2.3984-1.6016 2.3984 0" />
    <path d="m54.699 44.801c0 1.5977-2.3984 1.5977-2.3984 0 0-1.6016 2.3984-1.6016 2.3984 0" />
    <path d="m58.199 44.801c0 1.5977-2.3984 1.5977-2.3984 0 0-1.6016 2.3984-1.6016 2.3984 0" />
    <path d="m61.699 44.801c0 1.5977-2.3984 1.5977-2.3984 0 0-1.6016 2.3984-1.6016 2.3984 0" />
    <path d="m65.102 44.801c0 1.5977-2.4023 1.5977-2.4023 0 0-1.6016 2.4023-1.6016 2.4023 0" />
    <path d="m68.602 44.801c0 1.5977-2.4023 1.5977-2.4023 0 0-1.6016 2.4023-1.6016 2.4023 0" />
    <path d="m72.102 44.801c0 1.5977-2.4023 1.5977-2.4023 0 0-1.6016 2.4023-1.6016 2.4023 0" />
    <path d="m75.602 44.801c0 1.5977-2.4023 1.5977-2.4023 0 0-1.6016 2.4023-1.6016 2.4023 0" />
    <path d="m79.102 44.801c0 1.5977-2.4023 1.5977-2.4023 0 0-1.6016 2.4023-1.6016 2.4023 0" />
    <path d="m82.602 44.801c0 1.5977-2.4023 1.5977-2.4023 0 0-1.6016 2.4023-1.6016 2.4023 0" />
    <path d="m86 44.801c0 1.5977-2.3984 1.5977-2.3984 0 0-1.6016 2.3984-1.6016 2.3984 0" />
    <path d="m89.5 44.801c0 1.5977-2.3984 1.5977-2.3984 0 0-1.6016 2.3984-1.6016 2.3984 0" />
    <path d="m93 44.801c0 1.5977-2.3984 1.5977-2.3984 0 0-1.6016 2.3984-1.6016 2.3984 0" />
    <path d="m96.5 44.801c0 1.5977-2.3984 1.5977-2.3984 0 0-1.6016 2.3984-1.6016 2.3984 0" />
    <path d="m5.8984 48.301c0 1.5977-2.3984 1.5977-2.3984 0 0-1.6016 2.3984-1.6016 2.3984 0" />
    <path d="m9.3984 48.301c0 1.5977-2.3984 1.5977-2.3984 0 0-1.6016 2.3984-1.6016 2.3984 0" />
    <path d="m12.898 48.301c0 1.5977-2.3984 1.5977-2.3984 0 0-1.6016 2.3984-1.6016 2.3984 0" />
    <path d="m16.398 48.301c0 1.5977-2.3984 1.5977-2.3984 0 0-1.6016 2.3984-1.6016 2.3984 0" />
    <path d="m19.801 48.301c0 1.5977-2.4023 1.5977-2.4023 0 0-1.6016 2.4023-1.6016 2.4023 0" />
    <path d="m23.301 48.301c0 1.5977-2.4023 1.5977-2.4023 0 0-1.6016 2.4023-1.6016 2.4023 0" />
    <path d="m26.801 48.301c0 1.5977-2.4023 1.5977-2.4023 0 0-1.6016 2.4023-1.6016 2.4023 0" />
    <path d="m30.301 48.301c0 1.5977-2.4023 1.5977-2.4023 0 0-1.6016 2.4023-1.6016 2.4023 0" />
    <path d="m33.801 48.301c0 1.5977-2.4023 1.5977-2.4023 0 0-1.6016 2.4023-1.6016 2.4023 0" />
    <path d="m37.301 48.301c0 1.5977-2.4023 1.5977-2.4023 0 0-1.6016 2.4023-1.6016 2.4023 0" />
    <path d="m40.699 48.301c0 1.5977-2.3984 1.5977-2.3984 0 0-1.6016 2.3984-1.6016 2.3984 0" />
    <path d="m44.199 48.301c0 1.5977-2.3984 1.5977-2.3984 0 0-1.6016 2.3984-1.6016 2.3984 0" />
    <path d="m47.699 48.301c0 1.5977-2.3984 1.5977-2.3984 0 0-1.6016 2.3984-1.6016 2.3984 0" />
    <path d="m51.199 48.301c0 1.5977-2.3984 1.5977-2.3984 0 0-1.6016 2.3984-1.6016 2.3984 0" />
    <path d="m54.699 48.301c0 1.5977-2.3984 1.5977-2.3984 0 0-1.6016 2.3984-1.6016 2.3984 0" />
    <path d="m58.199 48.301c0 1.5977-2.3984 1.5977-2.3984 0 0-1.6016 2.3984-1.6016 2.3984 0" />
    <path d="m61.699 48.301c0 1.5977-2.3984 1.5977-2.3984 0 0-1.6016 2.3984-1.6016 2.3984 0" />
    <path d="m65.102 48.301c0 1.5977-2.4023 1.5977-2.4023 0 0-1.6016 2.4023-1.6016 2.4023 0" />
    <path d="m68.602 48.301c0 1.5977-2.4023 1.5977-2.4023 0 0-1.6016 2.4023-1.6016 2.4023 0" />
    <path d="m72.102 48.301c0 1.5977-2.4023 1.5977-2.4023 0 0-1.6016 2.4023-1.6016 2.4023 0" />
    <path d="m75.602 48.301c0 1.5977-2.4023 1.5977-2.4023 0 0-1.6016 2.4023-1.6016 2.4023 0" />
    <path d="m79.102 48.301c0 1.5977-2.4023 1.5977-2.4023 0 0-1.6016 2.4023-1.6016 2.4023 0" />
    <path d="m82.602 48.301c0 1.5977-2.4023 1.5977-2.4023 0 0-1.6016 2.4023-1.6016 2.4023 0" />
    <path d="m86 48.301c0 1.5977-2.3984 1.5977-2.3984 0 0-1.6016 2.3984-1.6016 2.3984 0" />
    <path d="m89.5 48.301c0 1.5977-2.3984 1.5977-2.3984 0 0-1.6016 2.3984-1.6016 2.3984 0" />
    <path d="m93 48.301c0 1.5977-2.3984 1.5977-2.3984 0 0-1.6016 2.3984-1.6016 2.3984 0" />
    <path d="m96.5 48.301c0 1.5977-2.3984 1.5977-2.3984 0 0-1.6016 2.3984-1.6016 2.3984 0" />
    <path d="m9.3984 51.699c0 1.6016-2.3984 1.6016-2.3984 0 0-1.5977 2.3984-1.5977 2.3984 0" />
    <path d="m12.898 51.699c0 1.6016-2.3984 1.6016-2.3984 0 0-1.5977 2.3984-1.5977 2.3984 0" />
    <path d="m16.398 51.699c0 1.6016-2.3984 1.6016-2.3984 0 0-1.5977 2.3984-1.5977 2.3984 0" />
    <path d="m19.801 51.699c0 1.6016-2.4023 1.6016-2.4023 0 0-1.5977 2.4023-1.5977 2.4023 0" />
    <path d="m23.301 51.699c0 1.6016-2.4023 1.6016-2.4023 0 0-1.5977 2.4023-1.5977 2.4023 0" />
    <path d="m26.801 51.699c0 1.6016-2.4023 1.6016-2.4023 0 0-1.5977 2.4023-1.5977 2.4023 0" />
    <path d="m30.301 51.699c0 1.6016-2.4023 1.6016-2.4023 0 0-1.5977 2.4023-1.5977 2.4023 0" />
    <path d="m33.801 51.699c0 1.6016-2.4023 1.6016-2.4023 0 0-1.5977 2.4023-1.5977 2.4023 0" />
    <path d="m37.301 51.699c0 1.6016-2.4023 1.6016-2.4023 0 0-1.5977 2.4023-1.5977 2.4023 0" />
    <path d="m40.699 51.699c0 1.6016-2.3984 1.6016-2.3984 0 0-1.5977 2.3984-1.5977 2.3984 0" />
    <path d="m44.199 51.699c0 1.6016-2.3984 1.6016-2.3984 0 0-1.5977 2.3984-1.5977 2.3984 0" />
    <path d="m47.699 51.699c0 1.6016-2.3984 1.6016-2.3984 0 0-1.5977 2.3984-1.5977 2.3984 0" />
    <path d="m51.199 51.699c0 1.6016-2.3984 1.6016-2.3984 0 0-1.5977 2.3984-1.5977 2.3984 0" />
    <path d="m54.699 51.699c0 1.6016-2.3984 1.6016-2.3984 0 0-1.5977 2.3984-1.5977 2.3984 0" />
    <path d="m58.199 51.699c0 1.6016-2.3984 1.6016-2.3984 0 0-1.5977 2.3984-1.5977 2.3984 0" />
    <path d="m61.699 51.699c0 1.6016-2.3984 1.6016-2.3984 0 0-1.5977 2.3984-1.5977 2.3984 0" />
    <path d="m65.102 51.699c0 1.6016-2.4023 1.6016-2.4023 0 0-1.5977 2.4023-1.5977 2.4023 0" />
    <path d="m68.602 51.699c0 1.6016-2.4023 1.6016-2.4023 0 0-1.5977 2.4023-1.5977 2.4023 0" />
    <path d="m72.102 51.699c0 1.6016-2.4023 1.6016-2.4023 0 0-1.5977 2.4023-1.5977 2.4023 0" />
    <path d="m75.602 51.699c0 1.6016-2.4023 1.6016-2.4023 0 0-1.5977 2.4023-1.5977 2.4023 0" />
    <path d="m79.102 51.699c0 1.6016-2.4023 1.6016-2.4023 0 0-1.5977 2.4023-1.5977 2.4023 0" />
    <path d="m82.602 51.699c0 1.6016-2.4023 1.6016-2.4023 0 0-1.5977 2.4023-1.5977 2.4023 0" />
    <path d="m86 51.699c0 1.6016-2.3984 1.6016-2.3984 0 0-1.5977 2.3984-1.5977 2.3984 0" />
    <path d="m89.5 51.699c0 1.6016-2.3984 1.6016-2.3984 0 0-1.5977 2.3984-1.5977 2.3984 0" />
    <path d="m93 51.699c0 1.6016-2.3984 1.6016-2.3984 0 0-1.5977 2.3984-1.5977 2.3984 0" />
    <path d="m96.5 51.699c0 1.6016-2.3984 1.6016-2.3984 0 0-1.5977 2.3984-1.5977 2.3984 0" />
    <path d="m100 51.699c0 1.6016-2.3984 1.6016-2.3984 0 0-1.5977 2.3984-1.5977 2.3984 0" />
    <path d="m12.898 55.199c0 1.6016-2.3984 1.6016-2.3984 0 0-1.5977 2.3984-1.5977 2.3984 0" />
    <path d="m16.398 55.199c0 1.6016-2.3984 1.6016-2.3984 0 0-1.5977 2.3984-1.5977 2.3984 0" />
    <path d="m19.801 55.199c0 1.6016-2.4023 1.6016-2.4023 0 0-1.5977 2.4023-1.5977 2.4023 0" />
    <path d="m23.301 55.199c0 1.6016-2.4023 1.6016-2.4023 0 0-1.5977 2.4023-1.5977 2.4023 0" />
    <path d="m26.801 55.199c0 1.6016-2.4023 1.6016-2.4023 0 0-1.5977 2.4023-1.5977 2.4023 0" />
    <path d="m30.301 55.199c0 1.6016-2.4023 1.6016-2.4023 0 0-1.5977 2.4023-1.5977 2.4023 0" />
    <path d="m33.801 55.199c0 1.6016-2.4023 1.6016-2.4023 0 0-1.5977 2.4023-1.5977 2.4023 0" />
    <path d="m37.301 55.199c0 1.6016-2.4023 1.6016-2.4023 0 0-1.5977 2.4023-1.5977 2.4023 0" />
    <path d="m40.699 55.199c0 1.6016-2.3984 1.6016-2.3984 0 0-1.5977 2.3984-1.5977 2.3984 0" />
    <path d="m44.199 55.199c0 1.6016-2.3984 1.6016-2.3984 0 0-1.5977 2.3984-1.5977 2.3984 0" />
    <path d="m47.699 55.199c0 1.6016-2.3984 1.6016-2.3984 0 0-1.5977 2.3984-1.5977 2.3984 0" />
    <path d="m51.199 55.199c0 1.6016-2.3984 1.6016-2.3984 0 0-1.5977 2.3984-1.5977 2.3984 0" />
    <path d="m54.699 55.199c0 1.6016-2.3984 1.6016-2.3984 0 0-1.5977 2.3984-1.5977 2.3984 0" />
    <path d="m58.199 55.199c0 1.6016-2.3984 1.6016-2.3984 0 0-1.5977 2.3984-1.5977 2.3984 0" />
    <path d="m61.699 55.199c0 1.6016-2.3984 1.6016-2.3984 0 0-1.5977 2.3984-1.5977 2.3984 0" />
    <path d="m65.102 55.199c0 1.6016-2.4023 1.6016-2.4023 0 0-1.5977 2.4023-1.5977 2.4023 0" />
    <path d="m68.602 55.199c0 1.6016-2.4023 1.6016-2.4023 0 0-1.5977 2.4023-1.5977 2.4023 0" />
    <path d="m72.102 55.199c0 1.6016-2.4023 1.6016-2.4023 0 0-1.5977 2.4023-1.5977 2.4023 0" />
    <path d="m75.602 55.199c0 1.6016-2.4023 1.6016-2.4023 0 0-1.5977 2.4023-1.5977 2.4023 0" />
    <path d="m79.102 55.199c0 1.6016-2.4023 1.6016-2.4023 0 0-1.5977 2.4023-1.5977 2.4023 0" />
    <path d="m82.602 55.199c0 1.6016-2.4023 1.6016-2.4023 0 0-1.5977 2.4023-1.5977 2.4023 0" />
    <path d="m86 55.199c0 1.6016-2.3984 1.6016-2.3984 0 0-1.5977 2.3984-1.5977 2.3984 0" />
    <path d="m89.5 55.199c0 1.6016-2.3984 1.6016-2.3984 0 0-1.5977 2.3984-1.5977 2.3984 0" />
    <path d="m93 55.199c0 1.6016-2.3984 1.6016-2.3984 0 0-1.5977 2.3984-1.5977 2.3984 0" />
    <path d="m96.5 55.199c0 1.6016-2.3984 1.6016-2.3984 0 0-1.5977 2.3984-1.5977 2.3984 0" />
    <path d="m100 55.199c0 1.6016-2.3984 1.6016-2.3984 0 0-1.5977 2.3984-1.5977 2.3984 0" />
    <path d="m16.398 58.699c0 1.6016-2.3984 1.6016-2.3984 0 0-1.5977 2.3984-1.5977 2.3984 0" />
    <path d="m19.801 58.699c0 1.6016-2.4023 1.6016-2.4023 0 0-1.5977 2.4023-1.5977 2.4023 0" />
    <path d="m23.301 58.699c0 1.6016-2.4023 1.6016-2.4023 0 0-1.5977 2.4023-1.5977 2.4023 0" />
    <path d="m26.801 58.699c0 1.6016-2.4023 1.6016-2.4023 0 0-1.5977 2.4023-1.5977 2.4023 0" />
    <path d="m30.301 58.699c0 1.6016-2.4023 1.6016-2.4023 0 0-1.5977 2.4023-1.5977 2.4023 0" />
    <path d="m33.801 58.699c0 1.6016-2.4023 1.6016-2.4023 0 0-1.5977 2.4023-1.5977 2.4023 0" />
    <path d="m37.301 58.699c0 1.6016-2.4023 1.6016-2.4023 0 0-1.5977 2.4023-1.5977 2.4023 0" />
    <path d="m40.699 58.699c0 1.6016-2.3984 1.6016-2.3984 0 0-1.5977 2.3984-1.5977 2.3984 0" />
    <path d="m44.199 58.699c0 1.6016-2.3984 1.6016-2.3984 0 0-1.5977 2.3984-1.5977 2.3984 0" />
    <path d="m47.699 58.699c0 1.6016-2.3984 1.6016-2.3984 0 0-1.5977 2.3984-1.5977 2.3984 0" />
    <path d="m51.199 58.699c0 1.6016-2.3984 1.6016-2.3984 0 0-1.5977 2.3984-1.5977 2.3984 0" />
    <path d="m54.699 58.699c0 1.6016-2.3984 1.6016-2.3984 0 0-1.5977 2.3984-1.5977 2.3984 0" />
    <path d="m58.199 58.699c0 1.6016-2.3984 1.6016-2.3984 0 0-1.5977 2.3984-1.5977 2.3984 0" />
    <path d="m61.699 58.699c0 1.6016-2.3984 1.6016-2.3984 0 0-1.5977 2.3984-1.5977 2.3984 0" />
    <path d="m65.102 58.699c0 1.6016-2.4023 1.6016-2.4023 0 0-1.5977 2.4023-1.5977 2.4023 0" />
    <path d="m68.602 58.699c0 1.6016-2.4023 1.6016-2.4023 0 0-1.5977 2.4023-1.5977 2.4023 0" />
    <path
            fill="#c05621"
            d="m72.102 58.699c0 1.6016-2.4023 1.6016-2.4023 0 0-1.5977 2.4023-1.5977 2.4023 0"
          />
    <path d="m75.602 58.699c0 1.6016-2.4023 1.6016-2.4023 0 0-1.5977 2.4023-1.5977 2.4023 0" />
    <path d="m79.102 58.699c0 1.6016-2.4023 1.6016-2.4023 0 0-1.5977 2.4023-1.5977 2.4023 0" />
    <path d="m82.602 58.699c0 1.6016-2.4023 1.6016-2.4023 0 0-1.5977 2.4023-1.5977 2.4023 0" />
    <path d="m86 58.699c0 1.6016-2.3984 1.6016-2.3984 0 0-1.5977 2.3984-1.5977 2.3984 0" />
    <path d="m89.5 58.699c0 1.6016-2.3984 1.6016-2.3984 0 0-1.5977 2.3984-1.5977 2.3984 0" />
    <path d="m93 58.699c0 1.6016-2.3984 1.6016-2.3984 0 0-1.5977 2.3984-1.5977 2.3984 0" />
    <path d="m96.5 58.699c0 1.6016-2.3984 1.6016-2.3984 0 0-1.5977 2.3984-1.5977 2.3984 0" />
    <path d="m100 58.699c0 1.6016-2.3984 1.6016-2.3984 0 0-1.5977 2.3984-1.5977 2.3984 0" />
    <path d="m19.801 62.199c0 1.6016-2.4023 1.6016-2.4023 0 0-1.5977 2.4023-1.5977 2.4023 0" />
    <path d="m23.301 62.199c0 1.6016-2.4023 1.6016-2.4023 0 0-1.5977 2.4023-1.5977 2.4023 0" />
    <path d="m26.801 62.199c0 1.6016-2.4023 1.6016-2.4023 0 0-1.5977 2.4023-1.5977 2.4023 0" />
    <path d="m30.301 62.199c0 1.6016-2.4023 1.6016-2.4023 0 0-1.5977 2.4023-1.5977 2.4023 0" />
    <path d="m33.801 62.199c0 1.6016-2.4023 1.6016-2.4023 0 0-1.5977 2.4023-1.5977 2.4023 0" />
    <path d="m37.301 62.199c0 1.6016-2.4023 1.6016-2.4023 0 0-1.5977 2.4023-1.5977 2.4023 0" />
    <path d="m40.699 62.199c0 1.6016-2.3984 1.6016-2.3984 0 0-1.5977 2.3984-1.5977 2.3984 0" />
    <path d="m44.199 62.199c0 1.6016-2.3984 1.6016-2.3984 0 0-1.5977 2.3984-1.5977 2.3984 0" />
    <path d="m47.699 62.199c0 1.6016-2.3984 1.6016-2.3984 0 0-1.5977 2.3984-1.5977 2.3984 0" />
    <path d="m51.199 62.199c0 1.6016-2.3984 1.6016-2.3984 0 0-1.5977 2.3984-1.5977 2.3984 0" />
    <path d="m54.699 62.199c0 1.6016-2.3984 1.6016-2.3984 0 0-1.5977 2.3984-1.5977 2.3984 0" />
    <path d="m58.199 62.199c0 1.6016-2.3984 1.6016-2.3984 0 0-1.5977 2.3984-1.5977 2.3984 0" />
    <path d="m61.699 62.199c0 1.6016-2.3984 1.6016-2.3984 0 0-1.5977 2.3984-1.5977 2.3984 0" />
    <path d="m65.102 62.199c0 1.6016-2.4023 1.6016-2.4023 0 0-1.5977 2.4023-1.5977 2.4023 0" />
    <path d="m68.602 62.199c0 1.6016-2.4023 1.6016-2.4023 0 0-1.5977 2.4023-1.5977 2.4023 0" />
    <path d="m72.102 62.199c0 1.6016-2.4023 1.6016-2.4023 0 0-1.5977 2.4023-1.5977 2.4023 0" />
    <path d="m75.602 62.199c0 1.6016-2.4023 1.6016-2.4023 0 0-1.5977 2.4023-1.5977 2.4023 0" />
    <path d="m79.102 62.199c0 1.6016-2.4023 1.6016-2.4023 0 0-1.5977 2.4023-1.5977 2.4023 0" />
    <path d="m82.602 62.199c0 1.6016-2.4023 1.6016-2.4023 0 0-1.5977 2.4023-1.5977 2.4023 0" />
    <path d="m86 62.199c0 1.6016-2.3984 1.6016-2.3984 0 0-1.5977 2.3984-1.5977 2.3984 0" />
    <path d="m89.5 62.199c0 1.6016-2.3984 1.6016-2.3984 0 0-1.5977 2.3984-1.5977 2.3984 0" />
    <path d="m93 62.199c0 1.6016-2.3984 1.6016-2.3984 0 0-1.5977 2.3984-1.5977 2.3984 0" />
    <path d="m96.5 62.199c0 1.6016-2.3984 1.6016-2.3984 0 0-1.5977 2.3984-1.5977 2.3984 0" />
    <path d="m100 62.199c0 1.6016-2.3984 1.6016-2.3984 0 0-1.5977 2.3984-1.5977 2.3984 0" />
    <path d="m19.801 65.699c0 1.6016-2.4023 1.6016-2.4023 0 0-1.5977 2.4023-1.5977 2.4023 0" />
    <path d="m23.301 65.699c0 1.6016-2.4023 1.6016-2.4023 0 0-1.5977 2.4023-1.5977 2.4023 0" />
    <path d="m26.801 65.699c0 1.6016-2.4023 1.6016-2.4023 0 0-1.5977 2.4023-1.5977 2.4023 0" />
    <path d="m30.301 65.699c0 1.6016-2.4023 1.6016-2.4023 0 0-1.5977 2.4023-1.5977 2.4023 0" />
    <path d="m33.801 65.699c0 1.6016-2.4023 1.6016-2.4023 0 0-1.5977 2.4023-1.5977 2.4023 0" />
    <path d="m37.301 65.699c0 1.6016-2.4023 1.6016-2.4023 0 0-1.5977 2.4023-1.5977 2.4023 0" />
    <path d="m40.699 65.699c0 1.6016-2.3984 1.6016-2.3984 0 0-1.5977 2.3984-1.5977 2.3984 0" />
    <path d="m44.199 65.699c0 1.6016-2.3984 1.6016-2.3984 0 0-1.5977 2.3984-1.5977 2.3984 0" />
    <path d="m47.699 65.699c0 1.6016-2.3984 1.6016-2.3984 0 0-1.5977 2.3984-1.5977 2.3984 0" />
    <path d="m51.199 65.699c0 1.6016-2.3984 1.6016-2.3984 0 0-1.5977 2.3984-1.5977 2.3984 0" />
    <path d="m54.699 65.699c0 1.6016-2.3984 1.6016-2.3984 0 0-1.5977 2.3984-1.5977 2.3984 0" />
    <path d="m58.199 65.699c0 1.6016-2.3984 1.6016-2.3984 0 0-1.5977 2.3984-1.5977 2.3984 0" />
    <path d="m61.699 65.699c0 1.6016-2.3984 1.6016-2.3984 0 0-1.5977 2.3984-1.5977 2.3984 0" />
    <path d="m65.102 65.699c0 1.6016-2.4023 1.6016-2.4023 0 0-1.5977 2.4023-1.5977 2.4023 0" />
    <path d="m68.602 65.699c0 1.6016-2.4023 1.6016-2.4023 0 0-1.5977 2.4023-1.5977 2.4023 0" />
    <path d="m72.102 65.699c0 1.6016-2.4023 1.6016-2.4023 0 0-1.5977 2.4023-1.5977 2.4023 0" />
    <path d="m75.602 65.699c0 1.6016-2.4023 1.6016-2.4023 0 0-1.5977 2.4023-1.5977 2.4023 0" />
    <path d="m79.102 65.699c0 1.6016-2.4023 1.6016-2.4023 0 0-1.5977 2.4023-1.5977 2.4023 0" />
    <path d="m82.602 65.699c0 1.6016-2.4023 1.6016-2.4023 0 0-1.5977 2.4023-1.5977 2.4023 0" />
    <path d="m86 65.699c0 1.6016-2.3984 1.6016-2.3984 0 0-1.5977 2.3984-1.5977 2.3984 0" />
    <path d="m89.5 65.699c0 1.6016-2.3984 1.6016-2.3984 0 0-1.5977 2.3984-1.5977 2.3984 0" />
    <path d="m93 65.699c0 1.6016-2.3984 1.6016-2.3984 0 0-1.5977 2.3984-1.5977 2.3984 0" />
    <path d="m96.5 65.699c0 1.6016-2.3984 1.6016-2.3984 0 0-1.5977 2.3984-1.5977 2.3984 0" />
    <path d="m23.301 69.199c0 1.6016-2.4023 1.6016-2.4023 0 0-1.5977 2.4023-1.5977 2.4023 0" />
    <path d="m26.801 69.199c0 1.6016-2.4023 1.6016-2.4023 0 0-1.5977 2.4023-1.5977 2.4023 0" />
    <path d="m30.301 69.199c0 1.6016-2.4023 1.6016-2.4023 0 0-1.5977 2.4023-1.5977 2.4023 0" />
    <path d="m44.199 69.199c0 1.6016-2.3984 1.6016-2.3984 0 0-1.5977 2.3984-1.5977 2.3984 0" />
    <path d="m47.699 69.199c0 1.6016-2.3984 1.6016-2.3984 0 0-1.5977 2.3984-1.5977 2.3984 0" />
    <path d="m51.199 69.199c0 1.6016-2.3984 1.6016-2.3984 0 0-1.5977 2.3984-1.5977 2.3984 0" />
    <path d="m54.699 69.199c0 1.6016-2.3984 1.6016-2.3984 0 0-1.5977 2.3984-1.5977 2.3984 0" />
    <path d="m58.199 69.199c0 1.6016-2.3984 1.6016-2.3984 0 0-1.5977 2.3984-1.5977 2.3984 0" />
    <path d="m61.699 69.199c0 1.6016-2.3984 1.6016-2.3984 0 0-1.5977 2.3984-1.5977 2.3984 0" />
    <path d="m65.102 69.199c0 1.6016-2.4023 1.6016-2.4023 0 0-1.5977 2.4023-1.5977 2.4023 0" />
    <path d="m68.602 69.199c0 1.6016-2.4023 1.6016-2.4023 0 0-1.5977 2.4023-1.5977 2.4023 0" />
    <path d="m72.102 69.199c0 1.6016-2.4023 1.6016-2.4023 0 0-1.5977 2.4023-1.5977 2.4023 0" />
    <path d="m75.602 69.199c0 1.6016-2.4023 1.6016-2.4023 0 0-1.5977 2.4023-1.5977 2.4023 0" />
    <path d="m79.102 69.199c0 1.6016-2.4023 1.6016-2.4023 0 0-1.5977 2.4023-1.5977 2.4023 0" />
    <path d="m82.602 69.199c0 1.6016-2.4023 1.6016-2.4023 0 0-1.5977 2.4023-1.5977 2.4023 0" />
    <path d="m86 69.199c0 1.6016-2.3984 1.6016-2.3984 0 0-1.5977 2.3984-1.5977 2.3984 0" />
    <path d="m89.5 69.199c0 1.6016-2.3984 1.6016-2.3984 0 0-1.5977 2.3984-1.5977 2.3984 0" />
    <path d="m47.699 72.602c0 1.5977-2.3984 1.5977-2.3984 0 0-1.6016 2.3984-1.6016 2.3984 0" />
    <path d="m51.199 72.602c0 1.5977-2.3984 1.5977-2.3984 0 0-1.6016 2.3984-1.6016 2.3984 0" />
    <path d="m54.699 72.602c0 1.5977-2.3984 1.5977-2.3984 0 0-1.6016 2.3984-1.6016 2.3984 0" />
    <path d="m58.199 72.602c0 1.5977-2.3984 1.5977-2.3984 0 0-1.6016 2.3984-1.6016 2.3984 0" />
    <path d="m61.699 72.602c0 1.5977-2.3984 1.5977-2.3984 0 0-1.6016 2.3984-1.6016 2.3984 0" />
    <path d="m65.102 72.602c0 1.5977-2.4023 1.5977-2.4023 0 0-1.6016 2.4023-1.6016 2.4023 0" />
    <path d="m68.602 72.602c0 1.5977-2.4023 1.5977-2.4023 0 0-1.6016 2.4023-1.6016 2.4023 0" />
    <path d="m72.102 72.602c0 1.5977-2.4023 1.5977-2.4023 0 0-1.6016 2.4023-1.6016 2.4023 0" />
    <path d="m75.602 72.602c0 1.5977-2.4023 1.5977-2.4023 0 0-1.6016 2.4023-1.6016 2.4023 0" />
    <path d="m79.102 72.602c0 1.5977-2.4023 1.5977-2.4023 0 0-1.6016 2.4023-1.6016 2.4023 0" />
    <path d="m82.602 72.602c0 1.5977-2.4023 1.5977-2.4023 0 0-1.6016 2.4023-1.6016 2.4023 0" />
    <path d="m86 72.602c0 1.5977-2.3984 1.5977-2.3984 0 0-1.6016 2.3984-1.6016 2.3984 0" />
    <path d="m51.199 76.102c0 1.5977-2.3984 1.5977-2.3984 0 0-1.6016 2.3984-1.6016 2.3984 0" />
    <path d="m54.699 76.102c0 1.5977-2.3984 1.5977-2.3984 0 0-1.6016 2.3984-1.6016 2.3984 0" />
    <path d="m58.199 76.102c0 1.5977-2.3984 1.5977-2.3984 0 0-1.6016 2.3984-1.6016 2.3984 0" />
    <path d="m61.699 76.102c0 1.5977-2.3984 1.5977-2.3984 0 0-1.6016 2.3984-1.6016 2.3984 0" />
    <path d="m65.102 76.102c0 1.5977-2.4023 1.5977-2.4023 0 0-1.6016 2.4023-1.6016 2.4023 0" />
    <path d="m68.602 76.102c0 1.5977-2.4023 1.5977-2.4023 0 0-1.6016 2.4023-1.6016 2.4023 0" />
    <path d="m72.102 76.102c0 1.5977-2.4023 1.5977-2.4023 0 0-1.6016 2.4023-1.6016 2.4023 0" />
    <path d="m75.602 76.102c0 1.5977-2.4023 1.5977-2.4023 0 0-1.6016 2.4023-1.6016 2.4023 0" />
    <path d="m79.102 76.102c0 1.5977-2.4023 1.5977-2.4023 0 0-1.6016 2.4023-1.6016 2.4023 0" />
    <path d="m51.199 79.602c0 1.5977-2.3984 1.5977-2.3984 0 0-1.6016 2.3984-1.6016 2.3984 0" />
    <path d="m54.699 79.602c0 1.5977-2.3984 1.5977-2.3984 0 0-1.6016 2.3984-1.6016 2.3984 0" />
    <path d="m58.199 79.602c0 1.5977-2.3984 1.5977-2.3984 0 0-1.6016 2.3984-1.6016 2.3984 0" />
    <path d="m61.699 79.602c0 1.5977-2.3984 1.5977-2.3984 0 0-1.6016 2.3984-1.6016 2.3984 0" />
    <path d="m65.102 79.602c0 1.5977-2.4023 1.5977-2.4023 0 0-1.6016 2.4023-1.6016 2.4023 0" />
    <path d="m68.602 79.602c0 1.5977-2.4023 1.5977-2.4023 0 0-1.6016 2.4023-1.6016 2.4023 0" />
    <path d="m72.102 79.602c0 1.5977-2.4023 1.5977-2.4023 0 0-1.6016 2.4023-1.6016 2.4023 0" />
    <path d="m75.602 79.602c0 1.5977-2.4023 1.5977-2.4023 0 0-1.6016 2.4023-1.6016 2.4023 0" />
    <path d="m54.699 83.102c0 1.5977-2.3984 1.5977-2.3984 0 0-1.6016 2.3984-1.6016 2.3984 0" />
    <path d="m58.199 83.102c0 1.5977-2.3984 1.5977-2.3984 0 0-1.6016 2.3984-1.6016 2.3984 0" />
    <path d="m61.699 83.102c0 1.5977-2.3984 1.5977-2.3984 0 0-1.6016 2.3984-1.6016 2.3984 0" />
    <path d="m65.102 83.102c0 1.5977-2.4023 1.5977-2.4023 0 0-1.6016 2.4023-1.6016 2.4023 0" />
    <path d="m68.602 83.102c0 1.5977-2.4023 1.5977-2.4023 0 0-1.6016 2.4023-1.6016 2.4023 0" />
    <path d="m72.102 83.102c0 1.5977-2.4023 1.5977-2.4023 0 0-1.6016 2.4023-1.6016 2.4023 0" />
    <path d="m58.199 86.602c0 1.5977-2.3984 1.5977-2.3984 0 0-1.6016 2.3984-1.6016 2.3984 0" />
    <path d="m61.699 86.602c0 1.5977-2.3984 1.5977-2.3984 0 0-1.6016 2.3984-1.6016 2.3984 0" />
    <path d="m65.102 86.602c0 1.5977-2.4023 1.5977-2.4023 0 0-1.6016 2.4023-1.6016 2.4023 0" />
    <path d="m68.602 86.602c0 1.5977-2.4023 1.5977-2.4023 0 0-1.6016 2.4023-1.6016 2.4023 0" />
    <path d="m72.102 86.602c0 1.5977-2.4023 1.5977-2.4023 0 0-1.6016 2.4023-1.6016 2.4023 0" />
    <path d="m58.199 90.102c0 1.5977-2.3984 1.5977-2.3984 0 0-1.6016 2.3984-1.6016 2.3984 0" />
    <path d="m61.699 90.102c0 1.5977-2.3984 1.5977-2.3984 0 0-1.6016 2.3984-1.6016 2.3984 0" />
    <path d="m65.102 90.102c0 1.5977-2.4023 1.5977-2.4023 0 0-1.6016 2.4023-1.6016 2.4023 0" />
    <path d="m68.602 90.102c0 1.5977-2.4023 1.5977-2.4023 0 0-1.6016 2.4023-1.6016 2.4023 0" />
    <path d="m72.102 90.102c0 1.5977-2.4023 1.5977-2.4023 0 0-1.6016 2.4023-1.6016 2.4023 0" />
    <path d="m58.199 93.5c0 1.6016-2.3984 1.6016-2.3984 0s2.3984-1.6016 2.3984 0" />
    <path d="m61.699 93.5c0 1.6016-2.3984 1.6016-2.3984 0s2.3984-1.6016 2.3984 0" />
    <path d="m65.102 93.5c0 1.6016-2.4023 1.6016-2.4023 0s2.4023-1.6016 2.4023 0" />
    <path d="m68.602 93.5c0 1.6016-2.4023 1.6016-2.4023 0s2.4023-1.6016 2.4023 0" />
    <path d="m72.102 93.5c0 1.6016-2.4023 1.6016-2.4023 0s2.4023-1.6016 2.4023 0" />
    <path d="m68.602 97c0 1.6016-2.4023 1.6016-2.4023 0s2.4023-1.6016 2.4023 0" />
    <path d="m72.102 97c0 1.6016-2.4023 1.6016-2.4023 0s2.4023-1.6016 2.4023 0" />
    <path d="m75.602 97c0 1.6016-2.4023 1.6016-2.4023 0s2.4023-1.6016 2.4023 0" />
  </g>
</svg>
