<?xml version="1.0" encoding="UTF-8"?>
<svg style="width: 20px; height: 17px" version="1.1" class="fill-current"
  xmlns="http://www.w3.org/2000/svg">
  <path
    d="M19.807 1.943a8.588 8.588 0 0 1-2.036 2.135 11.918 11.918 0 0
    1-.465 3.854 12.085 12.085 0 0 1-1.452 3.177 12.426 12.426 0 0
    1-2.318 2.691c-.897.78-1.978 1.402-3.243
    1.867-1.265.464-2.618.697-4.06.697-2.27
    0-4.348-.618-6.233-1.854.293.034.62.051.98.051 1.885 0 3.565-.588
    5.04-1.764a3.915 3.915 0 0 1-2.363-.825 4.038 4.038 0 0
    1-1.432-2.039c.276.043.532.064.766.064.36 0 .717-.047
    1.068-.14A3.982 3.982 0 0 1 1.73
    8.43c-.617-.754-.925-1.63-.925-2.627v-.051c.57.324 1.182.498
    1.835.524a4.1 4.1 0 0 1-1.32-1.47 4.078 4.078 0 0
    1-.49-1.969c0-.75.185-1.445.553-2.084a11.548 11.548 0 0 0 3.702
    3.05 11.163 11.163 0 0 0 4.669 1.271c-.067-.324-.1-.639-.1-.946
    0-1.142.395-2.116 1.187-2.92C11.632.402 12.589 0 13.712 0c1.173 0
    2.161.435 2.966 1.304a7.878 7.878 0 0 0 2.576-.997 3.997 3.997 0 0
    1-1.785 2.275 7.98 7.98 0 0 0 2.338-.639z"
    fill-rule="nonzero" />
</svg>
