<?xml version="1.0" encoding="UTF-8"?>
<svg fill="#243C5A" width="100pt" height="100pt" version="1.1" viewBox="0 0 100 100" xmlns="http://www.w3.org/2000/svg">
 <g>
  <path d="m31.102 46.801c-8.6992 0-15.699-7-15.699-15.699 0-8.6992 7-15.699 15.699-15.699 8.6992 0 15.699 7 15.699 15.699 0 8.6992-7 15.699-15.699 15.699z"/>
  <path d="m68.5 46.801c-8.6992 0-15.699-7-15.699-15.699 0-8.6992 7-15.699 15.699-15.699s15.699 7 15.699 15.699c0 8.6992-7 15.699-15.699 15.699z"/>
  <path d="m31.102 84.199c-8.6992 0-15.699-7-15.699-15.699s7-15.699 15.699-15.699c8.6992 0 15.699 7 15.699 15.699 0 8.6016-7 15.699-15.699 15.699z"/>
  <path d="m68.5 84.199c-8.6992 0-15.699-7-15.699-15.699s7-15.699 15.699-15.699 15.699 7 15.699 15.699c0 8.6016-7 15.699-15.699 15.699z"/>
 </g>
</svg>
