<?xml version="1.0" encoding="UTF-8"?>
<svg fill="#243C5A" width="100pt" height="100pt" version="1.1" viewBox="0 0 100 100" xmlns="http://www.w3.org/2000/svg">
 <g>
  <path d="m10.102 56.215h2.082v1.0859h-2.082z"/>
  <path d="m12.883 56.215h2.082v1.0859h-2.082z"/>
  <path d="m12.883 54.137h2.082v1.0859h-2.082z"/>
  <path d="m15.664 56.215h2.082v1.0859h-2.082z"/>
  <path d="m15.664 54.137h2.082v1.0859h-2.082z"/>
  <path d="m15.664 52.055h2.082v1.0859h-2.082z"/>
  <path d="m7.1836 56.215h2.082v1.0859h-2.082z"/>
  <path d="m7.1836 54.137h2.082v1.0859h-2.082z"/>
  <path d="m7.1836 52.055h2.082v1.0859h-2.082z"/>
  <path d="m18.441 56.215h2.082v1.0859h-2.082z"/>
  <path d="m18.441 54.137h2.082v1.0859h-2.082z"/>
  <path d="m18.441 52.055h2.082v1.0859h-2.082z"/>
  <path d="m18.441 49.973h2.082v1.0859h-2.082z"/>
  <path d="m10.102 54.137h2.082v1.0859h-2.082z"/>
  <path d="m10.102 52.055h2.082v1.0859h-2.082z"/>
  <path d="m10.102 49.973h2.082v1.0859h-2.082z"/>
  <path d="m21.223 56.215h2.082v1.0859h-2.082z"/>
  <path d="m21.223 54.137h2.082v1.0859h-2.082z"/>
  <path d="m21.223 52.055h2.082v1.0859h-2.082z"/>
  <path d="m21.223 49.973h2.082v1.0859h-2.082z"/>
  <path d="m21.223 47.895h2.082v1.0859h-2.082z"/>
  <path d="m24.004 56.215h2.082v1.0859h-2.082z"/>
  <path d="m24.004 54.137h2.082v1.0859h-2.082z"/>
  <path d="m24.004 52.055h2.082v1.0859h-2.082z"/>
  <path d="m24.004 49.973h2.082v1.0859h-2.082z"/>
  <path d="m24.004 47.895h2.082v1.0859h-2.082z"/>
  <path d="m24.004 45.812h2.082v1.0859h-2.082z"/>
  <path d="m26.785 56.215h2.082v1.0859h-2.082z"/>
  <path d="m26.785 54.137h2.082v1.0859h-2.082z"/>
  <path d="m26.785 52.055h2.082v1.0859h-2.082z"/>
  <path d="m26.785 49.973h2.082v1.0859h-2.082z"/>
  <path d="m26.785 47.895h2.082v1.0859h-2.082z"/>
  <path d="m26.785 45.812h2.082v1.0859h-2.082z"/>
  <path d="m26.785 43.73h2.082v1.0859h-2.082z"/>
  <path d="m29.566 56.215h2.082v1.0859h-2.082z"/>
  <path d="m29.566 54.137h2.082v1.0859h-2.082z"/>
  <path d="m29.566 52.055h2.082v1.0859h-2.082z"/>
  <path d="m29.566 49.973h2.082v1.0859h-2.082z"/>
  <path d="m29.566 47.895h2.082v1.0859h-2.082z"/>
  <path d="m29.566 45.812h2.082v1.0859h-2.082z"/>
  <path d="m29.566 43.73h2.082v1.0859h-2.082z"/>
  <path d="m29.566 41.652h2.082v1.0859h-2.082z"/>
  <path d="m32.348 56.215h2.082v1.0859h-2.082z"/>
  <path d="m32.348 54.137h2.082v1.0859h-2.082z"/>
  <path d="m32.348 52.055h2.082v1.0859h-2.082z"/>
  <path d="m32.348 49.973h2.082v1.0859h-2.082z"/>
  <path d="m32.348 47.895h2.082v1.0859h-2.082z"/>
  <path d="m32.348 45.812h2.082v1.0859h-2.082z"/>
  <path d="m32.348 43.73h2.082v1.0859h-2.082z"/>
  <path d="m35.125 56.215h2.082v1.0859h-2.082z"/>
  <path d="m35.125 54.137h2.082v1.0859h-2.082z"/>
  <path d="m35.125 52.055h2.082v1.0859h-2.082z"/>
  <path d="m35.125 49.973h2.082v1.0859h-2.082z"/>
  <path d="m35.125 47.895h2.082v1.0859h-2.082z"/>
  <path d="m35.125 45.812h2.082v1.0859h-2.082z"/>
  <path d="m37.906 56.215h2.082v1.0859h-2.082z"/>
  <path d="m37.906 54.137h2.082v1.0859h-2.082z"/>
  <path d="m37.906 52.055h2.082v1.0859h-2.082z"/>
  <path d="m37.906 49.973h2.082v1.0859h-2.082z"/>
  <path d="m37.906 47.895h2.082v1.0859h-2.082z"/>
  <path d="m40.688 56.215h2.082v1.0859h-2.082z"/>
  <path d="m40.688 54.137h2.082v1.0859h-2.082z"/>
  <path d="m40.688 52.055h2.082v1.0859h-2.082z"/>
  <path d="m40.688 49.973h2.082v1.0859h-2.082z"/>
  <path d="m40.688 47.895h2.082v1.0859h-2.082z"/>
  <path d="m40.688 45.812h2.082v1.0859h-2.082z"/>
  <path d="m43.469 56.215h2.082v1.0859h-2.082z"/>
  <path d="m43.469 54.137h2.082v1.0859h-2.082z"/>
  <path d="m43.469 52.055h2.082v1.0859h-2.082z"/>
  <path d="m43.469 49.973h2.082v1.0859h-2.082z"/>
  <path d="m43.469 47.895h2.082v1.0859h-2.082z"/>
  <path d="m43.469 45.812h2.082v1.0859h-2.082z"/>
  <path d="m46.246 56.215h2.082v1.0859h-2.082z"/>
  <path d="m46.246 54.137h2.082v1.0859h-2.082z"/>
  <path d="m46.246 52.055h2.082v1.0859h-2.082z"/>
  <path d="m46.246 49.973h2.082v1.0859h-2.082z"/>
  <path d="m46.246 47.895h2.082v1.0859h-2.082z"/>
  <path d="m46.246 45.812h2.082v1.0859h-2.082z"/>
  <path d="m46.246 43.73h2.082v1.0859h-2.082z"/>
  <path d="m49.027 56.215h2.082v1.0859h-2.082z"/>
  <path d="m49.027 54.137h2.082v1.0859h-2.082z"/>
  <path d="m49.027 52.055h2.082v1.0859h-2.082z"/>
  <path d="m49.027 49.973h2.082v1.0859h-2.082z"/>
  <path d="m49.027 47.895h2.082v1.0859h-2.082z"/>
  <path d="m49.027 45.812h2.082v1.0859h-2.082z"/>
  <path d="m51.809 56.215h2.082v1.0859h-2.082z"/>
  <path d="m51.809 54.137h2.082v1.0859h-2.082z"/>
  <path d="m51.809 52.055h2.082v1.0859h-2.082z"/>
  <path d="m51.809 49.973h2.082v1.0859h-2.082z"/>
  <path d="m51.809 47.895h2.082v1.0859h-2.082z"/>
  <path d="m54.59 56.215h2.082v1.0859h-2.082z"/>
  <path d="m54.59 54.137h2.082v1.0859h-2.082z"/>
  <path d="m54.59 52.055h2.082v1.0859h-2.082z"/>
  <path d="m54.59 49.973h2.082v1.0859h-2.082z"/>
  <path d="m54.59 47.895h2.082v1.0859h-2.082z"/>
  <path d="m54.59 45.812h2.082v1.0859h-2.082z"/>
  <path d="m57.371 56.215h2.082v1.0859h-2.082z"/>
  <path d="m57.371 54.137h2.082v1.0859h-2.082z"/>
  <path d="m57.371 52.055h2.082v1.0859h-2.082z"/>
  <path d="m57.371 49.973h2.082v1.0859h-2.082z"/>
  <path d="m57.371 47.895h2.082v1.0859h-2.082z"/>
  <path d="m57.371 45.812h2.082v1.0859h-2.082z"/>
  <path d="m57.371 43.73h2.082v1.0859h-2.082z"/>
  <path d="m60.148 56.215h2.082v1.0859h-2.082z"/>
  <path d="m60.148 54.137h2.082v1.0859h-2.082z"/>
  <path d="m60.148 52.055h2.082v1.0859h-2.082z"/>
  <path d="m60.148 49.973h2.082v1.0859h-2.082z"/>
  <path d="m60.148 47.895h2.082v1.0859h-2.082z"/>
  <path d="m60.148 45.812h2.082v1.0859h-2.082z"/>
  <path d="m60.148 43.73h2.082v1.0859h-2.082z"/>
  <path d="m60.148 41.652h2.082v1.0859h-2.082z"/>
  <path d="m62.93 56.215h2.082v1.0859h-2.082z"/>
  <path d="m62.93 54.137h2.082v1.0859h-2.082z"/>
  <path d="m62.93 52.055h2.082v1.0859h-2.082z"/>
  <path d="m62.93 49.973h2.082v1.0859h-2.082z"/>
  <path d="m62.93 47.895h2.082v1.0859h-2.082z"/>
  <path d="m65.711 56.215h2.082v1.0859h-2.082z"/>
  <path d="m65.711 54.137h2.082v1.0859h-2.082z"/>
  <path d="m65.711 52.055h2.082v1.0859h-2.082z"/>
  <path d="m68.492 56.215h2.082v1.0859h-2.082z"/>
  <path d="m68.492 54.137h2.082v1.0859h-2.082z"/>
  <path d="m68.492 52.055h2.082v1.0859h-2.082z"/>
  <path d="m71.273 56.215h2.082v1.0859h-2.082z"/>
  <path d="m71.273 54.137h2.082v1.0859h-2.082z"/>
  <path d="m71.273 52.055h2.082v1.0859h-2.082z"/>
  <path d="m71.273 49.973h2.082v1.0859h-2.082z"/>
  <path d="m71.273 47.895h2.082v1.0859h-2.082z"/>
  <path d="m74.055 56.215h2.082v1.0859h-2.082z"/>
  <path d="m74.055 54.137h2.082v1.0859h-2.082z"/>
  <path d="m74.055 52.055h2.082v1.0859h-2.082z"/>
  <path d="m74.055 49.973h2.082v1.0859h-2.082z"/>
  <path d="m74.055 47.895h2.082v1.0859h-2.082z"/>
  <path d="m74.055 45.812h2.082v1.0859h-2.082z"/>
  <path d="m76.832 56.215h2.082v1.0859h-2.082z"/>
  <path d="m76.832 54.137h2.082v1.0859h-2.082z"/>
  <path d="m76.832 52.055h2.082v1.0859h-2.082z"/>
  <path d="m76.832 49.973h2.082v1.0859h-2.082z"/>
  <path d="m76.832 47.895h2.082v1.0859h-2.082z"/>
  <path d="m76.832 45.812h2.082v1.0859h-2.082z"/>
  <path d="m76.832 43.73h2.082v1.0859h-2.082z"/>
  <path d="m76.832 41.652h2.082v1.0859h-2.082z"/>
  <path d="m79.613 56.215h2.082v1.0859h-2.082z"/>
  <path d="m79.613 54.137h2.082v1.0859h-2.082z"/>
  <path d="m79.613 52.055h2.082v1.0859h-2.082z"/>
  <path d="m79.613 49.973h2.082v1.0859h-2.082z"/>
  <path d="m79.613 47.895h2.082v1.0859h-2.082z"/>
  <path d="m79.613 45.812h2.082v1.0859h-2.082z"/>
  <path d="m79.613 43.73h2.082v1.0859h-2.082z"/>
  <path d="m82.395 56.215h2.082v1.0859h-2.082z"/>
  <path d="m82.395 54.137h2.082v1.0859h-2.082z"/>
  <path d="m82.395 52.055h2.082v1.0859h-2.082z"/>
  <path d="m82.395 49.973h2.082v1.0859h-2.082z"/>
  <path d="m82.395 47.895h2.082v1.0859h-2.082z"/>
  <path d="m82.395 45.812h2.082v1.0859h-2.082z"/>
  <path d="m85.176 56.215h2.082v1.0859h-2.082z"/>
  <path d="m85.176 54.137h2.082v1.0859h-2.082z"/>
  <path d="m85.176 52.055h2.082v1.0859h-2.082z"/>
  <path d="m85.176 49.973h2.082v1.0859h-2.082z"/>
  <path d="m85.176 47.895h2.082v1.0859h-2.082z"/>
  <path d="m85.176 45.812h2.082v1.0859h-2.082z"/>
  <path d="m87.953 56.215h2.082v1.0859h-2.082z"/>
  <path d="m87.953 54.137h2.082v1.0859h-2.082z"/>
  <path d="m87.953 52.055h2.082v1.0859h-2.082z"/>
  <path d="m87.953 49.973h2.082v1.0859h-2.082z"/>
  <path d="m87.953 47.895h2.082v1.0859h-2.082z"/>
  <path d="m87.953 45.812h2.082v1.0859h-2.082z"/>
  <path d="m87.953 43.73h2.082v1.0859h-2.082z"/>
  <path d="m90.734 56.215h2.082v1.0859h-2.082z"/>
  <path d="m90.734 54.137h2.082v1.0859h-2.082z"/>
  <path d="m90.734 52.055h2.082v1.0859h-2.082z"/>
  <path d="m90.734 49.973h2.082v1.0859h-2.082z"/>
  <path d="m5 57.871v0.47656h90v-0.47656z"/>
 </g>
</svg>
